<svg xmlns="http://www.w3.org/2000/svg" xmlns:xlink="http://www.w3.org/1999/xlink" width="1920" zoomAndPan="magnify" viewBox="0 0 1440 959.999988" height="1280" preserveAspectRatio="xMidYMid meet" version="1.0"><defs><linearGradient x1="0" gradientTransform="matrix(0.75, 0, 0, 0.75, 0.000008625, 0.00002)" y1="0" x2="1919.99992" gradientUnits="userSpaceOnUse" y2="0" id="5e088763a7"><stop stop-opacity="1" stop-color="rgb(0%, 28.999329%, 67.799377%)" offset="0"/><stop stop-opacity="1" stop-color="rgb(0.309753%, 29.051208%, 67.886353%)" offset="0.00390625"/><stop stop-opacity="1" stop-color="rgb(0.621033%, 29.104614%, 67.974854%)" offset="0.0078125"/><stop stop-opacity="1" stop-color="rgb(0.932312%, 29.156494%, 68.061829%)" offset="0.0117188"/><stop stop-opacity="1" stop-color="rgb(1.243591%, 29.208374%, 68.148804%)" offset="0.015625"/><stop stop-opacity="1" stop-color="rgb(1.553345%, 29.260254%, 68.235779%)" offset="0.0195312"/><stop stop-opacity="1" stop-color="rgb(1.864624%, 29.31366%, 68.32428%)" offset="0.0234375"/><stop stop-opacity="1" stop-color="rgb(2.175903%, 29.36554%, 68.411255%)" offset="0.0273438"/><stop stop-opacity="1" stop-color="rgb(2.487183%, 29.417419%, 68.499756%)" offset="0.03125"/><stop stop-opacity="1" stop-color="rgb(2.796936%, 29.469299%, 68.586731%)" offset="0.0351562"/><stop stop-opacity="1" stop-color="rgb(3.108215%, 29.522705%, 68.673706%)" offset="0.0390625"/><stop stop-opacity="1" stop-color="rgb(3.419495%, 29.574585%, 68.760681%)" offset="0.0429688"/><stop stop-opacity="1" stop-color="rgb(3.730774%, 29.627991%, 68.849182%)" offset="0.046875"/><stop stop-opacity="1" stop-color="rgb(4.040527%, 29.679871%, 68.936157%)" offset="0.0507812"/><stop stop-opacity="1" stop-color="rgb(4.351807%, 29.73175%, 69.024658%)" offset="0.0546875"/><stop stop-opacity="1" stop-color="rgb(4.663086%, 29.78363%, 69.111633%)" offset="0.0585938"/><stop stop-opacity="1" stop-color="rgb(4.974365%, 29.837036%, 69.198608%)" offset="0.0625"/><stop stop-opacity="1" stop-color="rgb(5.284119%, 29.888916%, 69.285583%)" offset="0.0664062"/><stop stop-opacity="1" stop-color="rgb(5.595398%, 29.940796%, 69.374084%)" offset="0.0703125"/><stop stop-opacity="1" stop-color="rgb(5.906677%, 29.992676%, 69.46106%)" offset="0.0742188"/><stop stop-opacity="1" stop-color="rgb(6.217957%, 30.046082%, 69.549561%)" offset="0.078125"/><stop stop-opacity="1" stop-color="rgb(6.529236%, 30.097961%, 69.636536%)" offset="0.0820312"/><stop stop-opacity="1" stop-color="rgb(6.840515%, 30.151367%, 69.723511%)" offset="0.0859375"/><stop stop-opacity="1" stop-color="rgb(7.150269%, 30.203247%, 69.810486%)" offset="0.0898438"/><stop stop-opacity="1" stop-color="rgb(7.461548%, 30.255127%, 69.898987%)" offset="0.09375"/><stop stop-opacity="1" stop-color="rgb(7.772827%, 30.307007%, 69.985962%)" offset="0.0976562"/><stop stop-opacity="1" stop-color="rgb(8.084106%, 30.360413%, 70.074463%)" offset="0.101562"/><stop stop-opacity="1" stop-color="rgb(8.39386%, 30.412292%, 70.161438%)" offset="0.105469"/><stop stop-opacity="1" stop-color="rgb(8.705139%, 30.464172%, 70.249939%)" offset="0.109375"/><stop stop-opacity="1" stop-color="rgb(9.016418%, 30.516052%, 70.336914%)" offset="0.113281"/><stop stop-opacity="1" stop-color="rgb(9.327698%, 30.569458%, 70.423889%)" offset="0.117188"/><stop stop-opacity="1" stop-color="rgb(9.637451%, 30.621338%, 70.510864%)" offset="0.121094"/><stop stop-opacity="1" stop-color="rgb(9.94873%, 30.674744%, 70.599365%)" offset="0.125"/><stop stop-opacity="1" stop-color="rgb(10.26001%, 30.726624%, 70.68634%)" offset="0.128906"/><stop stop-opacity="1" stop-color="rgb(10.571289%, 30.778503%, 70.774841%)" offset="0.132812"/><stop stop-opacity="1" stop-color="rgb(10.881042%, 30.830383%, 70.861816%)" offset="0.136719"/><stop stop-opacity="1" stop-color="rgb(11.192322%, 30.883789%, 70.948792%)" offset="0.140625"/><stop stop-opacity="1" stop-color="rgb(11.503601%, 30.935669%, 71.035767%)" offset="0.144531"/><stop stop-opacity="1" stop-color="rgb(11.81488%, 30.987549%, 71.124268%)" offset="0.148438"/><stop stop-opacity="1" stop-color="rgb(12.12616%, 31.039429%, 71.211243%)" offset="0.152344"/><stop stop-opacity="1" stop-color="rgb(12.437439%, 31.092834%, 71.299744%)" offset="0.15625"/><stop stop-opacity="1" stop-color="rgb(12.747192%, 31.144714%, 71.386719%)" offset="0.160156"/><stop stop-opacity="1" stop-color="rgb(13.058472%, 31.19812%, 71.473694%)" offset="0.164062"/><stop stop-opacity="1" stop-color="rgb(13.369751%, 31.25%, 71.560669%)" offset="0.167969"/><stop stop-opacity="1" stop-color="rgb(13.68103%, 31.30188%, 71.64917%)" offset="0.171875"/><stop stop-opacity="1" stop-color="rgb(13.990784%, 31.35376%, 71.736145%)" offset="0.175781"/><stop stop-opacity="1" stop-color="rgb(14.302063%, 31.407166%, 71.824646%)" offset="0.179688"/><stop stop-opacity="1" stop-color="rgb(14.613342%, 31.459045%, 71.911621%)" offset="0.183594"/><stop stop-opacity="1" stop-color="rgb(14.924622%, 31.512451%, 71.998596%)" offset="0.1875"/><stop stop-opacity="1" stop-color="rgb(15.234375%, 31.564331%, 72.085571%)" offset="0.191406"/><stop stop-opacity="1" stop-color="rgb(15.545654%, 31.616211%, 72.174072%)" offset="0.195312"/><stop stop-opacity="1" stop-color="rgb(15.856934%, 31.668091%, 72.261047%)" offset="0.199219"/><stop stop-opacity="1" stop-color="rgb(16.168213%, 31.721497%, 72.349548%)" offset="0.203125"/><stop stop-opacity="1" stop-color="rgb(16.477966%, 31.773376%, 72.436523%)" offset="0.207031"/><stop stop-opacity="1" stop-color="rgb(16.789246%, 31.825256%, 72.523499%)" offset="0.210938"/><stop stop-opacity="1" stop-color="rgb(17.100525%, 31.877136%, 72.610474%)" offset="0.214844"/><stop stop-opacity="1" stop-color="rgb(17.411804%, 31.930542%, 72.698975%)" offset="0.21875"/><stop stop-opacity="1" stop-color="rgb(17.723083%, 31.982422%, 72.78595%)" offset="0.222656"/><stop stop-opacity="1" stop-color="rgb(18.034363%, 32.035828%, 72.874451%)" offset="0.226562"/><stop stop-opacity="1" stop-color="rgb(18.344116%, 32.087708%, 72.961426%)" offset="0.230469"/><stop stop-opacity="1" stop-color="rgb(18.655396%, 32.139587%, 73.049927%)" offset="0.234375"/><stop stop-opacity="1" stop-color="rgb(18.966675%, 32.191467%, 73.136902%)" offset="0.238281"/><stop stop-opacity="1" stop-color="rgb(19.277954%, 32.244873%, 73.223877%)" offset="0.242188"/><stop stop-opacity="1" stop-color="rgb(19.587708%, 32.296753%, 73.310852%)" offset="0.246094"/><stop stop-opacity="1" stop-color="rgb(19.898987%, 32.348633%, 73.399353%)" offset="0.25"/><stop stop-opacity="1" stop-color="rgb(20.210266%, 32.400513%, 73.486328%)" offset="0.253906"/><stop stop-opacity="1" stop-color="rgb(20.521545%, 32.453918%, 73.574829%)" offset="0.257812"/><stop stop-opacity="1" stop-color="rgb(20.831299%, 32.505798%, 73.661804%)" offset="0.261719"/><stop stop-opacity="1" stop-color="rgb(21.142578%, 32.559204%, 73.748779%)" offset="0.265625"/><stop stop-opacity="1" stop-color="rgb(21.453857%, 32.611084%, 73.835754%)" offset="0.269531"/><stop stop-opacity="1" stop-color="rgb(21.765137%, 32.662964%, 73.924255%)" offset="0.273438"/><stop stop-opacity="1" stop-color="rgb(22.07489%, 32.714844%, 74.01123%)" offset="0.277344"/><stop stop-opacity="1" stop-color="rgb(22.386169%, 32.76825%, 74.099731%)" offset="0.28125"/><stop stop-opacity="1" stop-color="rgb(22.697449%, 32.820129%, 74.186707%)" offset="0.285156"/><stop stop-opacity="1" stop-color="rgb(23.008728%, 32.872009%, 74.273682%)" offset="0.289062"/><stop stop-opacity="1" stop-color="rgb(23.318481%, 32.923889%, 74.360657%)" offset="0.292969"/><stop stop-opacity="1" stop-color="rgb(23.629761%, 32.977295%, 74.449158%)" offset="0.296875"/><stop stop-opacity="1" stop-color="rgb(23.94104%, 33.029175%, 74.536133%)" offset="0.300781"/><stop stop-opacity="1" stop-color="rgb(24.252319%, 33.082581%, 74.624634%)" offset="0.304688"/><stop stop-opacity="1" stop-color="rgb(24.563599%, 33.13446%, 74.711609%)" offset="0.308594"/><stop stop-opacity="1" stop-color="rgb(24.874878%, 33.18634%, 74.798584%)" offset="0.3125"/><stop stop-opacity="1" stop-color="rgb(25.184631%, 33.23822%, 74.885559%)" offset="0.316406"/><stop stop-opacity="1" stop-color="rgb(25.495911%, 33.291626%, 74.97406%)" offset="0.320312"/><stop stop-opacity="1" stop-color="rgb(25.80719%, 33.343506%, 75.061035%)" offset="0.324219"/><stop stop-opacity="1" stop-color="rgb(26.118469%, 33.395386%, 75.149536%)" offset="0.328125"/><stop stop-opacity="1" stop-color="rgb(26.428223%, 33.447266%, 75.236511%)" offset="0.332031"/><stop stop-opacity="1" stop-color="rgb(26.739502%, 33.500671%, 75.323486%)" offset="0.335938"/><stop stop-opacity="1" stop-color="rgb(27.050781%, 33.552551%, 75.410461%)" offset="0.339844"/><stop stop-opacity="1" stop-color="rgb(27.362061%, 33.605957%, 75.498962%)" offset="0.34375"/><stop stop-opacity="1" stop-color="rgb(27.671814%, 33.657837%, 75.585938%)" offset="0.347656"/><stop stop-opacity="1" stop-color="rgb(27.983093%, 33.709717%, 75.674438%)" offset="0.351562"/><stop stop-opacity="1" stop-color="rgb(28.294373%, 33.761597%, 75.761414%)" offset="0.355469"/><stop stop-opacity="1" stop-color="rgb(28.605652%, 33.815002%, 75.849915%)" offset="0.359375"/><stop stop-opacity="1" stop-color="rgb(28.915405%, 33.866882%, 75.93689%)" offset="0.363281"/><stop stop-opacity="1" stop-color="rgb(29.226685%, 33.920288%, 76.023865%)" offset="0.367188"/><stop stop-opacity="1" stop-color="rgb(29.537964%, 33.972168%, 76.11084%)" offset="0.371094"/><stop stop-opacity="1" stop-color="rgb(29.849243%, 34.024048%, 76.199341%)" offset="0.375"/><stop stop-opacity="1" stop-color="rgb(30.160522%, 34.075928%, 76.286316%)" offset="0.378906"/><stop stop-opacity="1" stop-color="rgb(30.471802%, 34.129333%, 76.374817%)" offset="0.382812"/><stop stop-opacity="1" stop-color="rgb(30.781555%, 34.181213%, 76.461792%)" offset="0.386719"/><stop stop-opacity="1" stop-color="rgb(31.092834%, 34.233093%, 76.548767%)" offset="0.390625"/><stop stop-opacity="1" stop-color="rgb(31.404114%, 34.284973%, 76.635742%)" offset="0.394531"/><stop stop-opacity="1" stop-color="rgb(31.715393%, 34.338379%, 76.724243%)" offset="0.398438"/><stop stop-opacity="1" stop-color="rgb(32.025146%, 34.390259%, 76.811218%)" offset="0.402344"/><stop stop-opacity="1" stop-color="rgb(32.336426%, 34.443665%, 76.899719%)" offset="0.40625"/><stop stop-opacity="1" stop-color="rgb(32.647705%, 34.495544%, 76.986694%)" offset="0.410156"/><stop stop-opacity="1" stop-color="rgb(32.958984%, 34.547424%, 77.073669%)" offset="0.414062"/><stop stop-opacity="1" stop-color="rgb(33.268738%, 34.599304%, 77.160645%)" offset="0.417969"/><stop stop-opacity="1" stop-color="rgb(33.580017%, 34.65271%, 77.249146%)" offset="0.421875"/><stop stop-opacity="1" stop-color="rgb(33.891296%, 34.70459%, 77.336121%)" offset="0.425781"/><stop stop-opacity="1" stop-color="rgb(34.202576%, 34.75647%, 77.424622%)" offset="0.429688"/><stop stop-opacity="1" stop-color="rgb(34.512329%, 34.80835%, 77.511597%)" offset="0.433594"/><stop stop-opacity="1" stop-color="rgb(34.823608%, 34.861755%, 77.598572%)" offset="0.4375"/><stop stop-opacity="1" stop-color="rgb(35.134888%, 34.913635%, 77.685547%)" offset="0.441406"/><stop stop-opacity="1" stop-color="rgb(35.446167%, 34.967041%, 77.774048%)" offset="0.445312"/><stop stop-opacity="1" stop-color="rgb(35.757446%, 35.018921%, 77.861023%)" offset="0.449219"/><stop stop-opacity="1" stop-color="rgb(36.068726%, 35.070801%, 77.949524%)" offset="0.453125"/><stop stop-opacity="1" stop-color="rgb(36.378479%, 35.122681%, 78.036499%)" offset="0.457031"/><stop stop-opacity="1" stop-color="rgb(36.689758%, 35.176086%, 78.123474%)" offset="0.460938"/><stop stop-opacity="1" stop-color="rgb(37.001038%, 35.227966%, 78.210449%)" offset="0.464844"/><stop stop-opacity="1" stop-color="rgb(37.312317%, 35.279846%, 78.29895%)" offset="0.46875"/><stop stop-opacity="1" stop-color="rgb(37.62207%, 35.331726%, 78.385925%)" offset="0.472656"/><stop stop-opacity="1" stop-color="rgb(37.93335%, 35.385132%, 78.474426%)" offset="0.476562"/><stop stop-opacity="1" stop-color="rgb(38.244629%, 35.437012%, 78.561401%)" offset="0.480469"/><stop stop-opacity="1" stop-color="rgb(38.555908%, 35.490417%, 78.649902%)" offset="0.484375"/><stop stop-opacity="1" stop-color="rgb(38.865662%, 35.542297%, 78.736877%)" offset="0.488281"/><stop stop-opacity="1" stop-color="rgb(39.176941%, 35.594177%, 78.823853%)" offset="0.492188"/><stop stop-opacity="1" stop-color="rgb(39.48822%, 35.646057%, 78.910828%)" offset="0.496094"/><stop stop-opacity="1" stop-color="rgb(39.7995%, 35.699463%, 78.999329%)" offset="0.5"/><stop stop-opacity="1" stop-color="rgb(40.109253%, 35.751343%, 79.086304%)" offset="0.503906"/><stop stop-opacity="1" stop-color="rgb(40.420532%, 35.803223%, 79.174805%)" offset="0.507812"/><stop stop-opacity="1" stop-color="rgb(40.731812%, 35.855103%, 79.26178%)" offset="0.511719"/><stop stop-opacity="1" stop-color="rgb(41.043091%, 35.908508%, 79.348755%)" offset="0.515625"/><stop stop-opacity="1" stop-color="rgb(41.352844%, 35.960388%, 79.43573%)" offset="0.519531"/><stop stop-opacity="1" stop-color="rgb(41.664124%, 36.013794%, 79.524231%)" offset="0.523438"/><stop stop-opacity="1" stop-color="rgb(41.975403%, 36.065674%, 79.611206%)" offset="0.527344"/><stop stop-opacity="1" stop-color="rgb(42.286682%, 36.117554%, 79.699707%)" offset="0.53125"/><stop stop-opacity="1" stop-color="rgb(42.597961%, 36.169434%, 79.786682%)" offset="0.535156"/><stop stop-opacity="1" stop-color="rgb(42.909241%, 36.222839%, 79.873657%)" offset="0.539062"/><stop stop-opacity="1" stop-color="rgb(43.218994%, 36.274719%, 79.960632%)" offset="0.542969"/><stop stop-opacity="1" stop-color="rgb(43.530273%, 36.326599%, 80.049133%)" offset="0.546875"/><stop stop-opacity="1" stop-color="rgb(43.841553%, 36.378479%, 80.136108%)" offset="0.550781"/><stop stop-opacity="1" stop-color="rgb(44.152832%, 36.431885%, 80.224609%)" offset="0.554688"/><stop stop-opacity="1" stop-color="rgb(44.462585%, 36.483765%, 80.311584%)" offset="0.558594"/><stop stop-opacity="1" stop-color="rgb(44.773865%, 36.53717%, 80.39856%)" offset="0.5625"/><stop stop-opacity="1" stop-color="rgb(45.085144%, 36.58905%, 80.485535%)" offset="0.566406"/><stop stop-opacity="1" stop-color="rgb(45.396423%, 36.64093%, 80.574036%)" offset="0.570312"/><stop stop-opacity="1" stop-color="rgb(45.706177%, 36.69281%, 80.661011%)" offset="0.574219"/><stop stop-opacity="1" stop-color="rgb(46.017456%, 36.746216%, 80.749512%)" offset="0.578125"/><stop stop-opacity="1" stop-color="rgb(46.328735%, 36.798096%, 80.836487%)" offset="0.582031"/><stop stop-opacity="1" stop-color="rgb(46.640015%, 36.851501%, 80.924988%)" offset="0.585938"/><stop stop-opacity="1" stop-color="rgb(46.949768%, 36.903381%, 81.011963%)" offset="0.589844"/><stop stop-opacity="1" stop-color="rgb(47.261047%, 36.955261%, 81.098938%)" offset="0.59375"/><stop stop-opacity="1" stop-color="rgb(47.572327%, 37.007141%, 81.185913%)" offset="0.597656"/><stop stop-opacity="1" stop-color="rgb(47.883606%, 37.060547%, 81.274414%)" offset="0.601562"/><stop stop-opacity="1" stop-color="rgb(48.194885%, 37.112427%, 81.361389%)" offset="0.605469"/><stop stop-opacity="1" stop-color="rgb(48.506165%, 37.164307%, 81.44989%)" offset="0.609375"/><stop stop-opacity="1" stop-color="rgb(48.815918%, 37.216187%, 81.536865%)" offset="0.613281"/><stop stop-opacity="1" stop-color="rgb(49.127197%, 37.269592%, 81.62384%)" offset="0.617188"/><stop stop-opacity="1" stop-color="rgb(49.438477%, 37.321472%, 81.710815%)" offset="0.621094"/><stop stop-opacity="1" stop-color="rgb(49.749756%, 37.374878%, 81.799316%)" offset="0.625"/><stop stop-opacity="1" stop-color="rgb(50.059509%, 37.426758%, 81.886292%)" offset="0.628906"/><stop stop-opacity="1" stop-color="rgb(50.370789%, 37.478638%, 81.974792%)" offset="0.632812"/><stop stop-opacity="1" stop-color="rgb(50.682068%, 37.530518%, 82.061768%)" offset="0.636719"/><stop stop-opacity="1" stop-color="rgb(50.993347%, 37.583923%, 82.148743%)" offset="0.640625"/><stop stop-opacity="1" stop-color="rgb(51.303101%, 37.635803%, 82.235718%)" offset="0.644531"/><stop stop-opacity="1" stop-color="rgb(51.61438%, 37.687683%, 82.324219%)" offset="0.648438"/><stop stop-opacity="1" stop-color="rgb(51.925659%, 37.739563%, 82.411194%)" offset="0.652344"/><stop stop-opacity="1" stop-color="rgb(52.236938%, 37.792969%, 82.499695%)" offset="0.65625"/><stop stop-opacity="1" stop-color="rgb(52.546692%, 37.844849%, 82.58667%)" offset="0.660156"/><stop stop-opacity="1" stop-color="rgb(52.857971%, 37.898254%, 82.673645%)" offset="0.664062"/><stop stop-opacity="1" stop-color="rgb(53.16925%, 37.950134%, 82.76062%)" offset="0.667969"/><stop stop-opacity="1" stop-color="rgb(53.48053%, 38.002014%, 82.849121%)" offset="0.671875"/><stop stop-opacity="1" stop-color="rgb(53.791809%, 38.053894%, 82.936096%)" offset="0.675781"/><stop stop-opacity="1" stop-color="rgb(54.103088%, 38.1073%, 83.024597%)" offset="0.679688"/><stop stop-opacity="1" stop-color="rgb(54.412842%, 38.15918%, 83.111572%)" offset="0.683594"/><stop stop-opacity="1" stop-color="rgb(54.724121%, 38.21106%, 83.198547%)" offset="0.6875"/><stop stop-opacity="1" stop-color="rgb(55.0354%, 38.262939%, 83.285522%)" offset="0.691406"/><stop stop-opacity="1" stop-color="rgb(55.34668%, 38.316345%, 83.374023%)" offset="0.695312"/><stop stop-opacity="1" stop-color="rgb(55.656433%, 38.368225%, 83.460999%)" offset="0.699219"/><stop stop-opacity="1" stop-color="rgb(55.967712%, 38.421631%, 83.5495%)" offset="0.703125"/><stop stop-opacity="1" stop-color="rgb(56.278992%, 38.473511%, 83.636475%)" offset="0.707031"/><stop stop-opacity="1" stop-color="rgb(56.590271%, 38.525391%, 83.724976%)" offset="0.710938"/><stop stop-opacity="1" stop-color="rgb(56.900024%, 38.577271%, 83.811951%)" offset="0.714844"/><stop stop-opacity="1" stop-color="rgb(57.211304%, 38.630676%, 83.898926%)" offset="0.71875"/><stop stop-opacity="1" stop-color="rgb(57.522583%, 38.682556%, 83.985901%)" offset="0.722656"/><stop stop-opacity="1" stop-color="rgb(57.833862%, 38.734436%, 84.074402%)" offset="0.726562"/><stop stop-opacity="1" stop-color="rgb(58.143616%, 38.786316%, 84.161377%)" offset="0.730469"/><stop stop-opacity="1" stop-color="rgb(58.454895%, 38.839722%, 84.249878%)" offset="0.734375"/><stop stop-opacity="1" stop-color="rgb(58.766174%, 38.891602%, 84.336853%)" offset="0.738281"/><stop stop-opacity="1" stop-color="rgb(59.077454%, 38.945007%, 84.423828%)" offset="0.742188"/><stop stop-opacity="1" stop-color="rgb(59.387207%, 38.996887%, 84.510803%)" offset="0.746094"/><stop stop-opacity="1" stop-color="rgb(59.698486%, 39.048767%, 84.599304%)" offset="0.75"/><stop stop-opacity="1" stop-color="rgb(60.009766%, 39.100647%, 84.686279%)" offset="0.753906"/><stop stop-opacity="1" stop-color="rgb(60.321045%, 39.154053%, 84.77478%)" offset="0.757812"/><stop stop-opacity="1" stop-color="rgb(60.632324%, 39.205933%, 84.861755%)" offset="0.761719"/><stop stop-opacity="1" stop-color="rgb(60.943604%, 39.259338%, 84.94873%)" offset="0.765625"/><stop stop-opacity="1" stop-color="rgb(61.253357%, 39.311218%, 85.035706%)" offset="0.769531"/><stop stop-opacity="1" stop-color="rgb(61.564636%, 39.363098%, 85.124207%)" offset="0.773438"/><stop stop-opacity="1" stop-color="rgb(61.875916%, 39.414978%, 85.211182%)" offset="0.777344"/><stop stop-opacity="1" stop-color="rgb(62.187195%, 39.468384%, 85.299683%)" offset="0.78125"/><stop stop-opacity="1" stop-color="rgb(62.496948%, 39.520264%, 85.386658%)" offset="0.785156"/><stop stop-opacity="1" stop-color="rgb(62.808228%, 39.572144%, 85.473633%)" offset="0.789062"/><stop stop-opacity="1" stop-color="rgb(63.119507%, 39.624023%, 85.560608%)" offset="0.792969"/><stop stop-opacity="1" stop-color="rgb(63.430786%, 39.677429%, 85.649109%)" offset="0.796875"/><stop stop-opacity="1" stop-color="rgb(63.74054%, 39.729309%, 85.736084%)" offset="0.800781"/><stop stop-opacity="1" stop-color="rgb(64.051819%, 39.782715%, 85.824585%)" offset="0.804688"/><stop stop-opacity="1" stop-color="rgb(64.363098%, 39.834595%, 85.91156%)" offset="0.808594"/><stop stop-opacity="1" stop-color="rgb(64.674377%, 39.886475%, 85.998535%)" offset="0.8125"/><stop stop-opacity="1" stop-color="rgb(64.984131%, 39.938354%, 86.08551%)" offset="0.816406"/><stop stop-opacity="1" stop-color="rgb(65.29541%, 39.99176%, 86.174011%)" offset="0.820312"/><stop stop-opacity="1" stop-color="rgb(65.606689%, 40.04364%, 86.260986%)" offset="0.824219"/><stop stop-opacity="1" stop-color="rgb(65.917969%, 40.09552%, 86.349487%)" offset="0.828125"/><stop stop-opacity="1" stop-color="rgb(66.229248%, 40.1474%, 86.436462%)" offset="0.832031"/><stop stop-opacity="1" stop-color="rgb(66.540527%, 40.200806%, 86.524963%)" offset="0.835938"/><stop stop-opacity="1" stop-color="rgb(66.850281%, 40.252686%, 86.611938%)" offset="0.839844"/><stop stop-opacity="1" stop-color="rgb(67.16156%, 40.306091%, 86.698914%)" offset="0.84375"/><stop stop-opacity="1" stop-color="rgb(67.472839%, 40.357971%, 86.785889%)" offset="0.847656"/><stop stop-opacity="1" stop-color="rgb(67.784119%, 40.409851%, 86.87439%)" offset="0.851562"/><stop stop-opacity="1" stop-color="rgb(68.093872%, 40.461731%, 86.961365%)" offset="0.855469"/><stop stop-opacity="1" stop-color="rgb(68.405151%, 40.515137%, 87.049866%)" offset="0.859375"/><stop stop-opacity="1" stop-color="rgb(68.716431%, 40.567017%, 87.136841%)" offset="0.863281"/><stop stop-opacity="1" stop-color="rgb(69.02771%, 40.618896%, 87.223816%)" offset="0.867188"/><stop stop-opacity="1" stop-color="rgb(69.337463%, 40.670776%, 87.310791%)" offset="0.871094"/><stop stop-opacity="1" stop-color="rgb(69.648743%, 40.724182%, 87.399292%)" offset="0.875"/><stop stop-opacity="1" stop-color="rgb(69.960022%, 40.776062%, 87.486267%)" offset="0.878906"/><stop stop-opacity="1" stop-color="rgb(70.271301%, 40.829468%, 87.574768%)" offset="0.882812"/><stop stop-opacity="1" stop-color="rgb(70.581055%, 40.881348%, 87.661743%)" offset="0.886719"/><stop stop-opacity="1" stop-color="rgb(70.892334%, 40.933228%, 87.748718%)" offset="0.890625"/><stop stop-opacity="1" stop-color="rgb(71.203613%, 40.985107%, 87.835693%)" offset="0.894531"/><stop stop-opacity="1" stop-color="rgb(71.514893%, 41.038513%, 87.924194%)" offset="0.898438"/><stop stop-opacity="1" stop-color="rgb(71.826172%, 41.090393%, 88.011169%)" offset="0.902344"/><stop stop-opacity="1" stop-color="rgb(72.137451%, 41.142273%, 88.09967%)" offset="0.90625"/><stop stop-opacity="1" stop-color="rgb(72.447205%, 41.194153%, 88.186646%)" offset="0.910156"/><stop stop-opacity="1" stop-color="rgb(72.758484%, 41.247559%, 88.273621%)" offset="0.914062"/><stop stop-opacity="1" stop-color="rgb(73.069763%, 41.299438%, 88.360596%)" offset="0.917969"/><stop stop-opacity="1" stop-color="rgb(73.381042%, 41.352844%, 88.449097%)" offset="0.921875"/><stop stop-opacity="1" stop-color="rgb(73.690796%, 41.404724%, 88.536072%)" offset="0.925781"/><stop stop-opacity="1" stop-color="rgb(74.002075%, 41.456604%, 88.624573%)" offset="0.929688"/><stop stop-opacity="1" stop-color="rgb(74.313354%, 41.508484%, 88.711548%)" offset="0.933594"/><stop stop-opacity="1" stop-color="rgb(74.624634%, 41.56189%, 88.798523%)" offset="0.9375"/><stop stop-opacity="1" stop-color="rgb(74.934387%, 41.61377%, 88.885498%)" offset="0.941406"/><stop stop-opacity="1" stop-color="rgb(75.245667%, 41.667175%, 88.973999%)" offset="0.945312"/><stop stop-opacity="1" stop-color="rgb(75.556946%, 41.719055%, 89.060974%)" offset="0.949219"/><stop stop-opacity="1" stop-color="rgb(75.868225%, 41.770935%, 89.149475%)" offset="0.953125"/><stop stop-opacity="1" stop-color="rgb(76.177979%, 41.822815%, 89.23645%)" offset="0.957031"/><stop stop-opacity="1" stop-color="rgb(76.489258%, 41.876221%, 89.324951%)" offset="0.960938"/><stop stop-opacity="1" stop-color="rgb(76.800537%, 41.928101%, 89.411926%)" offset="0.964844"/><stop stop-opacity="1" stop-color="rgb(77.111816%, 41.97998%, 89.498901%)" offset="0.96875"/><stop stop-opacity="1" stop-color="rgb(77.42157%, 42.03186%, 89.585876%)" offset="0.972656"/><stop stop-opacity="1" stop-color="rgb(77.732849%, 42.085266%, 89.674377%)" offset="0.976562"/><stop stop-opacity="1" stop-color="rgb(78.044128%, 42.137146%, 89.761353%)" offset="0.980469"/><stop stop-opacity="1" stop-color="rgb(78.355408%, 42.190552%, 89.849854%)" offset="0.984375"/><stop stop-opacity="1" stop-color="rgb(78.666687%, 42.242432%, 89.936829%)" offset="0.988281"/><stop stop-opacity="1" stop-color="rgb(78.977966%, 42.294312%, 90.023804%)" offset="0.992188"/><stop stop-opacity="1" stop-color="rgb(79.28772%, 42.346191%, 90.110779%)" offset="0.996094"/><stop stop-opacity="1" stop-color="rgb(79.598999%, 42.399597%, 90.19928%)" offset="1"/></linearGradient><linearGradient x1="0.994303" gradientTransform="matrix(1448.249983, 0, 0, 1448.249983, 0.000008625, -335.589516)" y1="0.5" x2="0" gradientUnits="userSpaceOnUse" y2="0.5" id="5dd071987a"><stop stop-opacity="1" stop-color="rgb(50.09613%, 6.117249%, 94.132996%)" offset="0"/><stop stop-opacity="1" stop-color="rgb(50.02594%, 6.266785%, 94.155884%)" offset="0.0078125"/><stop stop-opacity="1" stop-color="rgb(49.887085%, 6.564331%, 94.20166%)" offset="0.015625"/><stop stop-opacity="1" stop-color="rgb(49.746704%, 6.863403%, 94.247437%)" offset="0.0234375"/><stop stop-opacity="1" stop-color="rgb(49.606323%, 7.16095%, 94.293213%)" offset="0.03125"/><stop stop-opacity="1" stop-color="rgb(49.467468%, 7.460022%, 94.338989%)" offset="0.0390625"/><stop stop-opacity="1" stop-color="rgb(49.327087%, 7.757568%, 94.384766%)" offset="0.046875"/><stop stop-opacity="1" stop-color="rgb(49.188232%, 8.056641%, 94.430542%)" offset="0.0546875"/><stop stop-opacity="1" stop-color="rgb(49.047852%, 8.354187%, 94.476318%)" offset="0.0625"/><stop stop-opacity="1" stop-color="rgb(48.907471%, 8.653259%, 94.522095%)" offset="0.0703125"/><stop stop-opacity="1" stop-color="rgb(48.768616%, 8.950806%, 94.567871%)" offset="0.078125"/><stop stop-opacity="1" stop-color="rgb(48.628235%, 9.249878%, 94.613647%)" offset="0.0859375"/><stop stop-opacity="1" stop-color="rgb(48.487854%, 9.547424%, 94.659424%)" offset="0.09375"/><stop stop-opacity="1" stop-color="rgb(48.348999%, 9.846497%, 94.7052%)" offset="0.101562"/><stop stop-opacity="1" stop-color="rgb(48.208618%, 10.144043%, 94.750977%)" offset="0.109375"/><stop stop-opacity="1" stop-color="rgb(48.068237%, 10.443115%, 94.796753%)" offset="0.117187"/><stop stop-opacity="1" stop-color="rgb(47.929382%, 10.740662%, 94.842529%)" offset="0.125"/><stop stop-opacity="1" stop-color="rgb(47.789001%, 11.039734%, 94.888306%)" offset="0.132812"/><stop stop-opacity="1" stop-color="rgb(47.650146%, 11.33728%, 94.935608%)" offset="0.140625"/><stop stop-opacity="1" stop-color="rgb(47.509766%, 11.636353%, 94.981384%)" offset="0.148438"/><stop stop-opacity="1" stop-color="rgb(47.369385%, 11.933899%, 95.027161%)" offset="0.15625"/><stop stop-opacity="1" stop-color="rgb(47.23053%, 12.232971%, 95.072937%)" offset="0.164062"/><stop stop-opacity="1" stop-color="rgb(47.090149%, 12.530518%, 95.118713%)" offset="0.171875"/><stop stop-opacity="1" stop-color="rgb(46.949768%, 12.82959%, 95.16449%)" offset="0.179687"/><stop stop-opacity="1" stop-color="rgb(46.810913%, 13.127136%, 95.210266%)" offset="0.1875"/><stop stop-opacity="1" stop-color="rgb(46.670532%, 13.426208%, 95.256042%)" offset="0.195312"/><stop stop-opacity="1" stop-color="rgb(46.530151%, 13.723755%, 95.301819%)" offset="0.203125"/><stop stop-opacity="1" stop-color="rgb(46.391296%, 14.022827%, 95.347595%)" offset="0.210937"/><stop stop-opacity="1" stop-color="rgb(46.250916%, 14.320374%, 95.393372%)" offset="0.21875"/><stop stop-opacity="1" stop-color="rgb(46.112061%, 14.619446%, 95.439148%)" offset="0.226562"/><stop stop-opacity="1" stop-color="rgb(45.97168%, 14.916992%, 95.484924%)" offset="0.234375"/><stop stop-opacity="1" stop-color="rgb(45.831299%, 15.216064%, 95.530701%)" offset="0.242187"/><stop stop-opacity="1" stop-color="rgb(45.692444%, 15.513611%, 95.576477%)" offset="0.25"/><stop stop-opacity="1" stop-color="rgb(45.552063%, 15.812683%, 95.622253%)" offset="0.257812"/><stop stop-opacity="1" stop-color="rgb(45.411682%, 16.110229%, 95.66803%)" offset="0.265625"/><stop stop-opacity="1" stop-color="rgb(45.272827%, 16.409302%, 95.713806%)" offset="0.273438"/><stop stop-opacity="1" stop-color="rgb(45.132446%, 16.706848%, 95.759583%)" offset="0.28125"/><stop stop-opacity="1" stop-color="rgb(44.993591%, 17.00592%, 95.805359%)" offset="0.289062"/><stop stop-opacity="1" stop-color="rgb(44.85321%, 17.303467%, 95.851135%)" offset="0.296875"/><stop stop-opacity="1" stop-color="rgb(44.71283%, 17.602539%, 95.896912%)" offset="0.304688"/><stop stop-opacity="1" stop-color="rgb(44.573975%, 17.900085%, 95.942688%)" offset="0.3125"/><stop stop-opacity="1" stop-color="rgb(44.433594%, 18.197632%, 95.988464%)" offset="0.320312"/><stop stop-opacity="1" stop-color="rgb(44.293213%, 18.496704%, 96.034241%)" offset="0.328125"/><stop stop-opacity="1" stop-color="rgb(44.154358%, 18.79425%, 96.080017%)" offset="0.335938"/><stop stop-opacity="1" stop-color="rgb(44.013977%, 19.093323%, 96.125793%)" offset="0.34375"/><stop stop-opacity="1" stop-color="rgb(43.873596%, 19.390869%, 96.17157%)" offset="0.351562"/><stop stop-opacity="1" stop-color="rgb(43.734741%, 19.689941%, 96.218872%)" offset="0.359375"/><stop stop-opacity="1" stop-color="rgb(43.59436%, 19.987488%, 96.264648%)" offset="0.367187"/><stop stop-opacity="1" stop-color="rgb(43.455505%, 20.28656%, 96.310425%)" offset="0.375"/><stop stop-opacity="1" stop-color="rgb(43.315125%, 20.584106%, 96.356201%)" offset="0.382812"/><stop stop-opacity="1" stop-color="rgb(43.174744%, 20.883179%, 96.401978%)" offset="0.390625"/><stop stop-opacity="1" stop-color="rgb(43.035889%, 21.180725%, 96.447754%)" offset="0.398437"/><stop stop-opacity="1" stop-color="rgb(42.895508%, 21.479797%, 96.49353%)" offset="0.40625"/><stop stop-opacity="1" stop-color="rgb(42.755127%, 21.777344%, 96.539307%)" offset="0.414062"/><stop stop-opacity="1" stop-color="rgb(42.616272%, 22.076416%, 96.585083%)" offset="0.421875"/><stop stop-opacity="1" stop-color="rgb(42.475891%, 22.373962%, 96.630859%)" offset="0.429687"/><stop stop-opacity="1" stop-color="rgb(42.33551%, 22.673035%, 96.676636%)" offset="0.4375"/><stop stop-opacity="1" stop-color="rgb(42.196655%, 22.970581%, 96.722412%)" offset="0.445312"/><stop stop-opacity="1" stop-color="rgb(42.056274%, 23.269653%, 96.768188%)" offset="0.453125"/><stop stop-opacity="1" stop-color="rgb(41.917419%, 23.5672%, 96.813965%)" offset="0.460937"/><stop stop-opacity="1" stop-color="rgb(41.777039%, 23.866272%, 96.859741%)" offset="0.46875"/><stop stop-opacity="1" stop-color="rgb(41.636658%, 24.163818%, 96.905518%)" offset="0.476562"/><stop stop-opacity="1" stop-color="rgb(41.497803%, 24.462891%, 96.951294%)" offset="0.484375"/><stop stop-opacity="1" stop-color="rgb(41.357422%, 24.760437%, 96.99707%)" offset="0.492188"/><stop stop-opacity="1" stop-color="rgb(41.217041%, 25.059509%, 97.042847%)" offset="0.5"/><stop stop-opacity="1" stop-color="rgb(41.078186%, 25.357056%, 97.088623%)" offset="0.507812"/><stop stop-opacity="1" stop-color="rgb(40.937805%, 25.656128%, 97.134399%)" offset="0.515625"/><stop stop-opacity="1" stop-color="rgb(40.797424%, 25.953674%, 97.180176%)" offset="0.523438"/><stop stop-opacity="1" stop-color="rgb(40.658569%, 26.252747%, 97.225952%)" offset="0.53125"/><stop stop-opacity="1" stop-color="rgb(40.518188%, 26.550293%, 97.271729%)" offset="0.539062"/><stop stop-opacity="1" stop-color="rgb(40.379333%, 26.849365%, 97.317505%)" offset="0.546875"/><stop stop-opacity="1" stop-color="rgb(40.238953%, 27.146912%, 97.363281%)" offset="0.554687"/><stop stop-opacity="1" stop-color="rgb(40.098572%, 27.445984%, 97.409058%)" offset="0.5625"/><stop stop-opacity="1" stop-color="rgb(39.959717%, 27.74353%, 97.454834%)" offset="0.570312"/><stop stop-opacity="1" stop-color="rgb(39.819336%, 28.042603%, 97.502136%)" offset="0.578125"/><stop stop-opacity="1" stop-color="rgb(39.678955%, 28.340149%, 97.547913%)" offset="0.585937"/><stop stop-opacity="1" stop-color="rgb(39.5401%, 28.639221%, 97.593689%)" offset="0.59375"/><stop stop-opacity="1" stop-color="rgb(39.399719%, 28.936768%, 97.639465%)" offset="0.601562"/><stop stop-opacity="1" stop-color="rgb(39.259338%, 29.23584%, 97.685242%)" offset="0.609375"/><stop stop-opacity="1" stop-color="rgb(39.120483%, 29.533386%, 97.731018%)" offset="0.617188"/><stop stop-opacity="1" stop-color="rgb(38.980103%, 29.832458%, 97.776794%)" offset="0.625"/><stop stop-opacity="1" stop-color="rgb(38.841248%, 30.130005%, 97.822571%)" offset="0.632812"/><stop stop-opacity="1" stop-color="rgb(38.700867%, 30.427551%, 97.868347%)" offset="0.640625"/><stop stop-opacity="1" stop-color="rgb(38.560486%, 30.726624%, 97.914124%)" offset="0.648438"/><stop stop-opacity="1" stop-color="rgb(38.421631%, 31.02417%, 97.9599%)" offset="0.65625"/><stop stop-opacity="1" stop-color="rgb(38.28125%, 31.323242%, 98.005676%)" offset="0.664062"/><stop stop-opacity="1" stop-color="rgb(38.140869%, 31.620789%, 98.051453%)" offset="0.671875"/><stop stop-opacity="1" stop-color="rgb(38.002014%, 31.919861%, 98.097229%)" offset="0.679687"/><stop stop-opacity="1" stop-color="rgb(37.861633%, 32.217407%, 98.143005%)" offset="0.6875"/><stop stop-opacity="1" stop-color="rgb(37.721252%, 32.516479%, 98.188782%)" offset="0.695312"/><stop stop-opacity="1" stop-color="rgb(37.582397%, 32.814026%, 98.234558%)" offset="0.703125"/><stop stop-opacity="1" stop-color="rgb(37.442017%, 33.113098%, 98.280334%)" offset="0.710938"/><stop stop-opacity="1" stop-color="rgb(37.303162%, 33.410645%, 98.326111%)" offset="0.71875"/><stop stop-opacity="1" stop-color="rgb(37.162781%, 33.709717%, 98.371887%)" offset="0.726562"/><stop stop-opacity="1" stop-color="rgb(37.0224%, 34.007263%, 98.417664%)" offset="0.734375"/><stop stop-opacity="1" stop-color="rgb(36.883545%, 34.306335%, 98.46344%)" offset="0.742188"/><stop stop-opacity="1" stop-color="rgb(36.743164%, 34.603882%, 98.509216%)" offset="0.75"/><stop stop-opacity="1" stop-color="rgb(36.602783%, 34.902954%, 98.554993%)" offset="0.757812"/><stop stop-opacity="1" stop-color="rgb(36.463928%, 35.2005%, 98.600769%)" offset="0.765625"/><stop stop-opacity="1" stop-color="rgb(36.323547%, 35.499573%, 98.646545%)" offset="0.773438"/><stop stop-opacity="1" stop-color="rgb(36.184692%, 35.797119%, 98.692322%)" offset="0.78125"/><stop stop-opacity="1" stop-color="rgb(36.044312%, 36.096191%, 98.738098%)" offset="0.789062"/><stop stop-opacity="1" stop-color="rgb(35.903931%, 36.393738%, 98.7854%)" offset="0.796875"/><stop stop-opacity="1" stop-color="rgb(35.765076%, 36.69281%, 98.831177%)" offset="0.804688"/><stop stop-opacity="1" stop-color="rgb(35.624695%, 36.990356%, 98.876953%)" offset="0.8125"/><stop stop-opacity="1" stop-color="rgb(35.484314%, 37.289429%, 98.922729%)" offset="0.820312"/><stop stop-opacity="1" stop-color="rgb(35.345459%, 37.586975%, 98.968506%)" offset="0.828125"/><stop stop-opacity="1" stop-color="rgb(35.205078%, 37.886047%, 99.014282%)" offset="0.835937"/><stop stop-opacity="1" stop-color="rgb(35.064697%, 38.183594%, 99.060059%)" offset="0.84375"/><stop stop-opacity="1" stop-color="rgb(34.925842%, 38.482666%, 99.105835%)" offset="0.851562"/><stop stop-opacity="1" stop-color="rgb(34.785461%, 38.780212%, 99.151611%)" offset="0.859375"/><stop stop-opacity="1" stop-color="rgb(34.646606%, 39.079285%, 99.197388%)" offset="0.867188"/><stop stop-opacity="1" stop-color="rgb(34.506226%, 39.376831%, 99.243164%)" offset="0.875"/><stop stop-opacity="1" stop-color="rgb(34.365845%, 39.675903%, 99.28894%)" offset="0.882812"/><stop stop-opacity="1" stop-color="rgb(34.22699%, 39.97345%, 99.334717%)" offset="0.890625"/><stop stop-opacity="1" stop-color="rgb(34.086609%, 40.272522%, 99.380493%)" offset="0.898438"/><stop stop-opacity="1" stop-color="rgb(33.946228%, 40.570068%, 99.42627%)" offset="0.90625"/><stop stop-opacity="1" stop-color="rgb(33.807373%, 40.869141%, 99.472046%)" offset="0.914062"/><stop stop-opacity="1" stop-color="rgb(33.666992%, 41.166687%, 99.517822%)" offset="0.921875"/><stop stop-opacity="1" stop-color="rgb(33.526611%, 41.465759%, 99.563599%)" offset="0.929688"/><stop stop-opacity="1" stop-color="rgb(33.387756%, 41.763306%, 99.609375%)" offset="0.9375"/><stop stop-opacity="1" stop-color="rgb(33.247375%, 42.062378%, 99.655151%)" offset="0.945312"/><stop stop-opacity="1" stop-color="rgb(33.108521%, 42.359924%, 99.700928%)" offset="0.953125"/><stop stop-opacity="1" stop-color="rgb(32.96814%, 42.658997%, 99.746704%)" offset="0.960938"/><stop stop-opacity="1" stop-color="rgb(32.827759%, 42.956543%, 99.79248%)" offset="0.96875"/><stop stop-opacity="1" stop-color="rgb(32.688904%, 43.254089%, 99.838257%)" offset="0.976562"/><stop stop-opacity="1" stop-color="rgb(32.548523%, 43.553162%, 99.884033%)" offset="0.984375"/><stop stop-opacity="1" stop-color="rgb(32.408142%, 43.850708%, 99.92981%)" offset="0.992188"/><stop stop-opacity="1" stop-color="rgb(32.269287%, 44.14978%, 99.975586%)" offset="1"/></linearGradient><clipPath id="5526de53a4"><path d="M 1108 634.011719 L 1415 634.011719 L 1415 960 L 1108 960 Z M 1108 634.011719 " clip-rule="nonzero"/></clipPath><clipPath id="356f42841b"><path d="M 1022.039062 865.414062 L 1326.878906 865.414062 L 1326.878906 960 L 1022.039062 960 Z M 1022.039062 865.414062 " clip-rule="nonzero"/></clipPath><clipPath id="6d7cb4901b"><path d="M 1015 865.414062 L 1319.839844 865.414062 L 1319.839844 960 L 1015 960 Z M 1015 865.414062 " clip-rule="nonzero"/></clipPath><clipPath id="0df046c0cf"><path d="M 1092.425781 944 L 1183.390625 944 L 1183.390625 960 L 1092.425781 960 Z M 1092.425781 944 " clip-rule="nonzero"/></clipPath></defs><rect x="-144" width="1728" fill="#ffffff" y="-95.999999" height="1151.999986" fill-opacity="1"/><rect x="-144" width="1728" fill="#ffffff" y="-95.999999" height="1151.999986" fill-opacity="1"/><rect x="-144" fill="url(#5e088763a7)" width="1728" y="-95.999999" height="1151.999986"/><rect x="-144" fill="url(#5dd071987a)" width="1728" y="-95.999999" height="1151.999986"/><path fill="#e0bc8f" d="M 1044.914062 884.058594 C 1044.914062 884.058594 1061.40625 928.136719 1115.636719 910.917969 C 1088.78125 874.304688 1061.371094 869.917969 1044.914062 884.058594 " fill-opacity="1" fill-rule="nonzero"/><path fill="#f7a07a" d="M 1102.789062 923.121094 L 1184.917969 736.574219 C 1186.804688 733.375 1188.355469 729.90625 1189.492188 726.183594 C 1197.007812 701.675781 1184.074219 675.960938 1160.601562 668.75 C 1137.128906 661.539062 1112.003906 675.5625 1104.488281 700.074219 C 1104.25 700.859375 1104.03125 701.644531 1103.832031 702.429688 L 1046.320312 908.496094 C 1041.382812 924.59375 1049.878906 941.480469 1065.296875 946.21875 C 1077.511719 949.96875 1090.382812 944.945312 1097.667969 934.695312 L 1097.6875 934.707031 L 1097.730469 934.609375 C 1099.609375 931.945312 1101.132812 928.949219 1102.144531 925.644531 C 1102.40625 924.804688 1102.605469 923.964844 1102.789062 923.121094 " fill-opacity="1" fill-rule="nonzero"/><path fill="#f8d09e" d="M 1182.261719 660.171875 C 1182.261719 660.171875 1222.644531 697.449219 1198.007812 741.183594 C 1173.375 784.921875 1115.636719 910.917969 1115.636719 910.917969 C 1115.636719 910.917969 1082.289062 874.003906 1045.425781 886.128906 C 1049.867188 865.171875 1101.910156 677.355469 1121.503906 662.566406 C 1141.09375 647.777344 1164.039062 646.867188 1182.261719 660.171875 " fill-opacity="1" fill-rule="nonzero"/><path fill="#e0bc8f" d="M 1374.460938 901.90625 C 1374.460938 901.90625 1412.582031 931.503906 1453.117188 891.539062 C 1412.582031 871.105469 1382.71875 881.832031 1374.460938 901.90625 " fill-opacity="1" fill-rule="nonzero"/><path fill="#2a2e37" d="M 1400.828125 572.792969 C 1373.34375 550.003906 1394.667969 550.457031 1399.9375 531.09375 C 1391.46875 509.859375 1363.464844 520.4375 1385.789062 472.003906 C 1369.554688 476.128906 1360.128906 466.09375 1355.714844 453.183594 C 1349.625 435.363281 1336.941406 420.34375 1319.433594 413.449219 C 1314.171875 411.378906 1308.855469 409.828125 1303.847656 408.816406 C 1299.332031 408.402344 1294.742188 408.894531 1290.398438 410.183594 C 1287.976562 410.90625 1280.335938 415.851562 1278.832031 414.414062 C 1275.234375 394.136719 1228.089844 388.644531 1209.339844 394.546875 C 1164.503906 408.667969 1184.976562 434.8125 1168.8125 436.28125 C 1143.644531 438.566406 1126.089844 465.808594 1131.589844 491.960938 C 1117.726562 506.425781 1123.839844 516.496094 1132.558594 530.972656 C 1133.925781 543.996094 1108.675781 562.445312 1119.203125 571.078125 C 1146.460938 593.429688 1114.933594 598.066406 1120.933594 610.753906 C 1128.886719 627.566406 1141.800781 623.019531 1147.347656 615.847656 C 1137.589844 628.46875 1138.488281 633.972656 1144.65625 638.53125 C 1157.664062 647.894531 1175.511719 637.75 1189.511719 643.707031 C 1199.109375 647.789062 1205.460938 658.8125 1215.832031 659.90625 C 1230.5625 661.457031 1239.742188 642.316406 1254.339844 639.816406 C 1271.417969 636.886719 1285.117188 657.691406 1302.402344 656.578125 C 1316.136719 655.695312 1326.066406 641.230469 1339.792969 640.222656 C 1355.402344 639.273438 1379.597656 661.347656 1390.222656 641.296875 C 1394.113281 630.636719 1381.03125 617.953125 1387.28125 608.488281 C 1392.21875 601.011719 1405.171875 602.972656 1410.136719 595.519531 C 1415.144531 588 1407.910156 578.398438 1400.828125 572.792969 " fill-opacity="1" fill-rule="nonzero"/><path fill="#1f2229" d="M 1182.40625 545.796875 C 1195.292969 562.90625 1158.984375 612.859375 1181.871094 618.070312 C 1222.253906 627.269531 1194.960938 641.015625 1219.171875 651.839844 C 1232.714844 655.464844 1243.222656 637.976562 1257.167969 636.558594 C 1283.625 641.949219 1303.367188 662.859375 1311.269531 640.652344 C 1315.75 628.058594 1320.199219 614.253906 1333.480469 612.84375 C 1343.386719 611.792969 1333.625 587.621094 1328.390625 579.664062 C 1325.640625 575.484375 1325.386719 570.070312 1327.925781 565.757812 C 1385.1875 468.601562 1139.675781 480.421875 1182.40625 545.796875 " fill-opacity="1" fill-rule="nonzero"/><g clip-path="url(#5526de53a4)"><path fill="#f8d09e" d="M 1414.0625 680.621094 C 1413.289062 681.949219 1411.972656 683.253906 1410.054688 684.511719 C 1409.351562 684.96875 1408.664062 685.441406 1407.988281 685.9375 C 1404.65625 688.292969 1401.554688 690.953125 1398.679688 693.871094 C 1397.042969 695.523438 1395.484375 697.253906 1394 699.066406 C 1382.289062 713.285156 1374.660156 732.457031 1370.085938 754.558594 C 1366.492188 771.929688 1364.773438 791.117188 1364.441406 811.132812 C 1364.253906 822.808594 1364.53125 834.777344 1365.203125 846.835938 C 1365.917969 860.109375 1367.085938 873.484375 1368.582031 886.714844 C 1370.214844 901.175781 1372.230469 915.460938 1374.460938 929.214844 L 1374.460938 929.226562 C 1377.515625 948.097656 1380.96875 965.980469 1384.363281 982.019531 C 1384.503906 982.667969 1384.640625 983.316406 1384.78125 983.964844 C 1385.285156 986.308594 1385.789062 988.617188 1386.28125 990.878906 L 1108.085938 990.878906 C 1108.984375 988.527344 1109.917969 986.222656 1110.867188 983.964844 C 1111.148438 983.308594 1111.429688 982.664062 1111.707031 982.019531 C 1117.664062 968.355469 1124.617188 956.257812 1131.484375 944.46875 C 1145.390625 920.539062 1158.910156 897.824219 1162.910156 865.714844 C 1164.171875 855.625 1164.488281 844.613281 1163.582031 832.34375 C 1163.097656 825.730469 1162.359375 819.46875 1161.402344 813.519531 C 1160.5 807.851562 1159.40625 802.480469 1158.152344 797.378906 C 1142.757812 734.617188 1103.921875 712.578125 1108.949219 689.871094 C 1109.15625 688.886719 1109.457031 687.90625 1109.84375 686.914062 C 1115.394531 672.714844 1138.683594 661.058594 1165.71875 652.253906 C 1172.378906 650.089844 1179.269531 648.09375 1186.167969 646.285156 C 1188.039062 645.789062 1189.917969 645.308594 1191.796875 644.84375 C 1197.238281 643.488281 1202.648438 642.246094 1207.941406 641.113281 C 1215.179688 639.570312 1222.175781 638.234375 1228.675781 637.128906 C 1232.933594 636.398438 1236.976562 635.765625 1240.734375 635.230469 C 1240.941406 635.203125 1241.148438 635.171875 1241.355469 635.144531 C 1249.292969 634.074219 1259.542969 633.972656 1271.082031 634.648438 L 1271.125 634.648438 C 1280.558594 635.207031 1290.859375 636.277344 1301.46875 637.753906 C 1304.867188 638.230469 1308.300781 638.746094 1311.746094 639.304688 C 1318.082031 640.324219 1324.46875 641.480469 1330.792969 642.742188 C 1333.609375 643.308594 1336.414062 643.890625 1339.195312 644.5 L 1339.199219 644.5 C 1346 645.984375 1352.667969 647.582031 1359.054688 649.269531 C 1364.195312 650.640625 1369.148438 652.0625 1373.839844 653.53125 C 1381.363281 655.894531 1388.214844 658.367188 1394.066406 660.894531 C 1397.054688 662.183594 1399.785156 663.492188 1402.210938 664.804688 C 1403.863281 665.699219 1405.378906 666.597656 1406.734375 667.492188 C 1407.621094 668.074219 1408.441406 668.65625 1409.1875 669.246094 C 1409.40625 669.410156 1409.613281 669.574219 1409.8125 669.730469 L 1409.835938 669.746094 C 1410.28125 670.117188 1410.710938 670.484375 1411.09375 670.855469 C 1414.664062 674.195312 1415.882812 677.488281 1414.0625 680.621094 " fill-opacity="1" fill-rule="nonzero"/></g><path fill="#e77d63" d="M 1444.03125 902.082031 L 1418.257812 699.742188 C 1418.238281 696.019531 1417.777344 692.246094 1416.816406 688.472656 C 1410.503906 663.628906 1385.261719 648.609375 1360.429688 654.929688 C 1335.609375 661.25 1320.601562 686.519531 1326.917969 711.367188 C 1327.121094 712.164062 1327.34375 712.945312 1327.585938 713.722656 L 1385.753906 919.605469 C 1389.902344 935.925781 1406.480469 945.789062 1422.785156 941.636719 C 1435.703125 938.347656 1444.546875 927.242188 1445.609375 914.652344 L 1445.628906 914.652344 L 1445.617188 914.546875 C 1445.882812 911.28125 1445.652344 907.925781 1444.800781 904.570312 C 1444.585938 903.722656 1444.3125 902.898438 1444.03125 902.082031 " fill-opacity="1" fill-rule="nonzero"/><path fill="#ffffff" d="M 1300.894531 635.1875 C 1300.894531 635.1875 1324.054688 632.734375 1339.203125 644.5 C 1302.707031 658.4375 1296.554688 727.25 1261.730469 726.351562 C 1226.90625 725.449219 1211.460938 661.992188 1186.164062 646.28125 C 1186.164062 646.28125 1209.074219 639.03125 1228.570312 636.230469 C 1248.070312 633.425781 1300.894531 635.1875 1300.894531 635.1875 " fill-opacity="1" fill-rule="nonzero"/><path fill="#f7a07a" d="M 1223.460938 604.984375 C 1223.460938 604.984375 1230.320312 640.035156 1228.855469 645.222656 C 1228.855469 645.222656 1232.03125 705.167969 1262.652344 703.136719 C 1293.273438 701.109375 1305.609375 650.851562 1300.894531 635.1875 L 1289.3125 608.371094 L 1288.183594 602.914062 L 1223.460938 604.984375 " fill-opacity="1" fill-rule="nonzero"/><path fill="#1f2229" d="M 1244.90625 471.453125 C 1237.679688 470.078125 1228.742188 467.125 1221.300781 467.1875 C 1218.160156 468.332031 1214.640625 471.097656 1212.195312 472.992188 C 1210.703125 474.152344 1208.5625 476.140625 1206.941406 477.769531 C 1206.316406 478.398438 1204.089844 481.460938 1204.433594 480.433594 C 1201.308594 487.0625 1200.347656 495.023438 1197 501.765625 C 1193.726562 508.351562 1189.75 514.53125 1186.132812 520.917969 C 1185.703125 521.675781 1185.328125 522.394531 1184.976562 523.097656 C 1186.457031 521.472656 1188.652344 520.136719 1190.945312 519.078125 C 1199.664062 509.195312 1209.21875 501.339844 1222.113281 496.722656 C 1224.414062 495.898438 1226.769531 495.203125 1229.148438 494.617188 C 1229.984375 488.066406 1230.167969 481.3125 1235.023438 477.246094 C 1242.613281 470.902344 1253.949219 477.003906 1263.824219 476.511719 C 1264.894531 476.457031 1265.945312 476.316406 1266.984375 476.113281 C 1259.644531 474.460938 1252.296875 472.851562 1244.90625 471.453125 " fill-opacity="1" fill-rule="nonzero"/><path fill="#f7a07a" d="M 1176.496094 533.8125 C 1176.714844 534.464844 1176.953125 535.113281 1177.210938 535.75 C 1181.367188 546.128906 1190.089844 554.824219 1196.523438 552.644531 C 1203.359375 550.332031 1204.222656 534.628906 1200.4375 523.429688 C 1199.808594 521.566406 1199.089844 519.953125 1198.296875 518.554688 C 1197.660156 517.425781 1196.972656 516.441406 1196.246094 515.597656 C 1192.457031 511.179688 1187.59375 510.457031 1182.808594 512.078125 C 1176.222656 514.3125 1172.945312 522.03125 1176.113281 532.617188 L 1176.117188 532.621094 C 1176.230469 533.011719 1176.359375 533.414062 1176.496094 533.8125 " fill-opacity="1" fill-rule="nonzero"/><path fill="#e77d63" d="M 1189.714844 526.234375 C 1189.714844 526.234375 1183.453125 518.335938 1180.738281 523.617188 C 1178.027344 528.902344 1189.042969 544.371094 1194.683594 544.164062 C 1200.320312 543.957031 1189.714844 526.234375 1189.714844 526.234375 " fill-opacity="1" fill-rule="nonzero"/><path fill="#828a8c" d="M 1182.394531 501.90625 C 1190.992188 500.691406 1185.648438 512.886719 1187.949219 529.1875 C 1190.257812 545.546875 1198.625 555.75 1190.164062 556.945312 C 1181.308594 558.199219 1172.363281 546.871094 1170.222656 531.695312 C 1168.078125 516.519531 1173.539062 503.15625 1182.394531 501.90625 " fill-opacity="1" fill-rule="nonzero"/><path fill="#c9d6d9" d="M 1172.367188 531.390625 C 1170.617188 518.996094 1174.785156 508.160156 1181.671875 507.1875 C 1188.5625 506.214844 1181.175781 517.503906 1182.925781 529.898438 C 1184.675781 542.292969 1194.898438 551.097656 1188.007812 552.070312 C 1181.121094 553.042969 1174.117188 543.785156 1172.367188 531.390625 " fill-opacity="1" fill-rule="nonzero"/><path fill="#e77d63" d="M 1291.902344 614.648438 C 1281.625 624.585938 1266.921875 624.371094 1253.890625 624.371094 C 1243.515625 624.371094 1232.71875 616.953125 1223.902344 609.386719 C 1222.503906 600.992188 1221.527344 597.113281 1221.527344 597.113281 L 1283.332031 587.152344 C 1283.332031 587.152344 1287.382812 591.992188 1291.902344 614.648438 " fill-opacity="1" fill-rule="nonzero"/><path fill="#f7a07a" d="M 1321.773438 517.625 C 1321.773438 520.464844 1321.675781 523.328125 1321.472656 526.164062 C 1318.25 572.386719 1289.414062 618.066406 1253.664062 618.066406 C 1215.691406 618.066406 1184.910156 557.644531 1184.910156 508.703125 C 1184.910156 500.570312 1185.761719 493.289062 1187.359375 486.757812 C 1188.636719 481.484375 1190.402344 476.71875 1192.589844 472.4375 C 1204.039062 450.085938 1227.082031 440.800781 1253.664062 440.800781 C 1290.265625 440.800781 1319.605469 466.71875 1321.652344 512.433594 L 1321.652344 512.453125 C 1321.734375 514.140625 1321.773438 515.882812 1321.773438 517.625 " fill-opacity="1" fill-rule="nonzero"/><path fill="#f7a07a" d="M 1319.390625 494.003906 C 1319.390625 532.839844 1289.820312 564.316406 1253.34375 564.316406 C 1216.871094 564.316406 1187.296875 532.839844 1187.296875 494.003906 C 1187.296875 455.171875 1216.871094 423.691406 1253.34375 423.691406 C 1289.820312 423.691406 1319.390625 455.171875 1319.390625 494.003906 " fill-opacity="1" fill-rule="nonzero"/><path fill="#e77d63" d="M 1308.238281 505.640625 C 1307.8125 505.761719 1307.40625 505.945312 1307.003906 506.148438 C 1307.308594 505.578125 1307.570312 504.992188 1307.8125 504.382812 C 1307.996094 504.789062 1308.136719 505.214844 1308.238281 505.640625 " fill-opacity="1" fill-rule="nonzero"/><path fill="#e77d63" d="M 1307.8125 504.382812 C 1307.105469 502.414062 1306.03125 500.570312 1304.652344 498.96875 C 1299.726562 493.269531 1291.195312 490.996094 1284.101562 493.511719 C 1278.550781 495.457031 1274.277344 499.878906 1269.167969 502.800781 C 1264.0625 505.71875 1256.886719 506.835938 1252.835938 502.578125 C 1248.886719 498.460938 1249.453125 490.914062 1244.609375 487.894531 C 1240.535156 485.359375 1235.203125 487.710938 1231.417969 490.652344 C 1227.605469 493.59375 1223.835938 497.285156 1219.054688 497.546875 C 1213.117188 497.871094 1208.640625 493.105469 1204.121094 490.023438 C 1200.148438 487.324219 1196.09375 486.269531 1191.351562 486.410156 C 1190.175781 486.433594 1188.777344 486.65625 1187.359375 486.757812 C 1188.636719 481.484375 1188.277344 476.71875 1190.464844 472.4375 C 1194.679688 472.476562 1200.511719 473.59375 1204.121094 476.046875 C 1208.640625 479.132812 1213.117188 483.898438 1219.054688 483.574219 C 1223.835938 483.308594 1227.605469 479.617188 1231.417969 476.675781 C 1235.203125 473.757812 1240.535156 471.382812 1244.609375 473.917969 C 1249.453125 476.941406 1248.886719 484.484375 1252.835938 488.625 C 1256.886719 492.863281 1264.0625 491.769531 1269.167969 488.824219 C 1274.277344 485.90625 1278.550781 481.484375 1284.101562 479.535156 C 1291.195312 477.019531 1299.726562 479.292969 1304.652344 485.011719 C 1309.128906 490.226562 1310.324219 498.015625 1307.8125 504.382812 " fill-opacity="1" fill-rule="nonzero"/><path fill="#f7a07a" d="M 1336.558594 533.8125 C 1336.339844 534.464844 1336.101562 535.113281 1335.84375 535.75 C 1331.6875 546.128906 1322.964844 554.824219 1316.53125 552.644531 C 1309.695312 550.332031 1308.832031 534.628906 1312.617188 523.429688 C 1313.246094 521.566406 1313.964844 519.953125 1314.757812 518.554688 C 1315.394531 517.425781 1316.082031 516.441406 1316.804688 515.597656 C 1320.597656 511.179688 1325.460938 510.457031 1330.246094 512.078125 C 1336.832031 514.3125 1340.113281 522.03125 1336.941406 532.617188 L 1336.9375 532.621094 C 1336.824219 533.011719 1336.695312 533.414062 1336.558594 533.8125 " fill-opacity="1" fill-rule="nonzero"/><path fill="#e77d63" d="M 1323.339844 526.234375 C 1323.339844 526.234375 1329.601562 518.335938 1332.3125 523.617188 C 1335.027344 528.902344 1324.011719 544.371094 1318.371094 544.164062 C 1312.734375 543.957031 1323.339844 526.234375 1323.339844 526.234375 " fill-opacity="1" fill-rule="nonzero"/><path fill="#2a2e37" d="M 1219.054688 483.566406 C 1223.84375 483.304688 1227.609375 479.613281 1231.40625 476.679688 C 1235.203125 473.75 1240.539062 471.386719 1244.613281 473.917969 C 1249.457031 476.933594 1248.878906 484.492188 1252.824219 488.617188 C 1256.890625 492.863281 1264.070312 491.757812 1269.167969 488.828125 C 1274.269531 485.898438 1278.558594 481.496094 1284.101562 479.535156 C 1291.199219 477.023438 1299.730469 479.292969 1304.640625 485.003906 C 1309.554688 490.714844 1310.535156 499.496094 1307.003906 506.148438 C 1311.914062 503.542969 1318.085938 507.046875 1321.121094 511.710938 C 1324.152344 516.371094 1331.847656 518.265625 1334.53125 523.136719 C 1337.214844 528.007812 1335.992188 536.058594 1341.351562 534.589844 C 1346.097656 533.289062 1348.628906 528.179688 1350.054688 523.46875 C 1358.667969 495.214844 1347.78125 463.015625 1326.265625 442.800781 C 1304.742188 422.582031 1274.117188 413.703125 1244.636719 415.113281 C 1220.996094 416.238281 1195.390625 425.5 1184.722656 446.644531 C 1182.347656 451.347656 1180.863281 456.488281 1180.28125 461.71875 C 1179.945312 464.742188 1178.921875 470.253906 1182.210938 472.105469 C 1184.734375 473.53125 1188.628906 472.511719 1191.351562 472.429688 C 1196.105469 472.292969 1200.15625 473.355469 1204.113281 476.054688 C 1208.636719 479.136719 1213.117188 483.894531 1219.054688 483.566406 " fill-opacity="1" fill-rule="nonzero"/><path fill="#1f2229" d="M 1246.089844 427.621094 C 1246.039062 425.058594 1244.664062 422.761719 1242.800781 421.222656 C 1240.9375 419.648438 1238.605469 418.707031 1236.246094 418.585938 C 1233.863281 418.445312 1231.480469 418.929688 1229.226562 419.78125 C 1226.964844 420.632812 1224.832031 421.828125 1222.757812 423.175781 C 1220.675781 424.519531 1218.609375 425.976562 1216.429688 427.378906 C 1214.257812 428.769531 1211.898438 430.101562 1209.378906 431.054688 C 1204.378906 433 1199.226562 433.738281 1194.515625 435.027344 C 1192.160156 435.664062 1189.886719 436.398438 1187.835938 437.429688 C 1185.792969 438.453125 1183.898438 439.726562 1182.164062 441.292969 C 1178.679688 444.398438 1175.792969 448.355469 1172.949219 452.46875 C 1171.515625 454.550781 1170.105469 456.585938 1168.839844 458.648438 C 1167.585938 460.710938 1166.480469 462.804688 1165.667969 464.925781 C 1164.894531 467.042969 1164.371094 469.179688 1164.386719 471.257812 C 1164.402344 471.777344 1164.402344 472.296875 1164.480469 472.804688 C 1164.527344 473.316406 1164.625 473.828125 1164.738281 474.359375 C 1164.976562 475.421875 1165.332031 476.546875 1165.71875 477.738281 C 1166.105469 478.929688 1166.515625 480.1875 1166.863281 481.554688 C 1167.207031 482.921875 1167.492188 484.417969 1167.492188 486.058594 C 1167.5 487.695312 1167.140625 489.464844 1166.386719 491.046875 C 1165.628906 492.640625 1164.503906 493.933594 1163.355469 494.953125 C 1161.023438 496.984375 1158.617188 498.160156 1156.546875 499.410156 C 1154.464844 500.621094 1152.742188 501.921875 1152.128906 503.210938 C 1151.480469 504.554688 1151.578125 505.984375 1152.636719 507.75 C 1153.675781 509.515625 1155.386719 511.332031 1157.058594 513.433594 C 1157.894531 514.5 1158.746094 515.648438 1159.449219 517.027344 C 1160.152344 518.382812 1160.703125 520.027344 1160.742188 521.753906 C 1160.804688 523.464844 1160.355469 525.203125 1159.59375 526.640625 C 1158.832031 528.085938 1157.84375 529.234375 1156.855469 530.226562 C 1154.863281 532.195312 1152.785156 533.675781 1151.074219 535.277344 C 1149.359375 536.871094 1148.054688 538.535156 1147.769531 540.410156 C 1147.410156 542.28125 1148.050781 544.375 1149.234375 546.425781 C 1150.382812 548.484375 1151.933594 550.476562 1153.355469 552.671875 C 1153.710938 553.21875 1154.050781 553.789062 1154.382812 554.371094 C 1154.6875 554.976562 1155.019531 555.566406 1155.292969 556.1875 C 1155.828125 557.425781 1156.269531 558.695312 1156.582031 559.996094 C 1157.207031 562.59375 1157.394531 565.269531 1157.117188 567.882812 C 1156.851562 570.492188 1156.171875 573.042969 1155.097656 575.398438 C 1154.003906 577.742188 1152.535156 579.902344 1150.699219 581.660156 C 1157.003906 573.644531 1156.960938 561.789062 1150.910156 554.382812 C 1149.429688 552.425781 1147.738281 550.507812 1146.25 548.234375 C 1145.507812 547.101562 1144.816406 545.863281 1144.347656 544.445312 C 1143.871094 543.042969 1143.644531 541.449219 1143.820312 539.882812 C 1143.960938 538.304688 1144.542969 536.769531 1145.328125 535.488281 C 1146.113281 534.203125 1147.050781 533.109375 1148.003906 532.140625 C 1149.910156 530.195312 1151.90625 528.617188 1153.433594 526.9375 C 1154.191406 526.105469 1154.8125 525.261719 1155.191406 524.4375 C 1155.570312 523.613281 1155.714844 522.808594 1155.648438 521.984375 C 1155.558594 520.382812 1154.449219 518.625 1152.90625 516.828125 C 1151.390625 515.007812 1149.484375 513.210938 1147.859375 510.652344 C 1147.0625 509.371094 1146.339844 507.808594 1146.109375 506.015625 C 1145.871094 504.222656 1146.15625 502.382812 1146.921875 500.730469 C 1147.691406 499.078125 1148.859375 497.792969 1150.015625 496.808594 C 1151.1875 495.816406 1152.367188 495.058594 1153.496094 494.359375 C 1155.742188 492.988281 1157.882812 491.828125 1159.351562 490.476562 C 1160.839844 489.125 1161.441406 487.84375 1161.445312 486.054688 C 1161.453125 484.25 1160.726562 482.023438 1159.9375 479.605469 C 1159.546875 478.382812 1159.136719 477.089844 1158.824219 475.679688 C 1158.671875 474.96875 1158.539062 474.238281 1158.46875 473.484375 C 1158.363281 472.738281 1158.355469 471.988281 1158.347656 471.238281 C 1158.351562 468.238281 1159.074219 465.375 1160.074219 462.761719 C 1162.175781 457.558594 1165.289062 453.246094 1168.253906 449.140625 C 1171.269531 445.015625 1174.457031 440.742188 1178.6875 437.234375 C 1180.773438 435.472656 1183.15625 433.945312 1185.699219 432.824219 C 1188.234375 431.695312 1190.847656 430.996094 1193.402344 430.425781 C 1195.960938 429.867188 1198.484375 429.460938 1200.933594 429.007812 C 1203.386719 428.546875 1205.769531 428.027344 1208.054688 427.316406 C 1212.589844 425.957031 1216.710938 423.09375 1221.253906 420.617188 C 1223.53125 419.386719 1225.945312 418.277344 1228.5 417.550781 C 1231.042969 416.824219 1233.773438 416.472656 1236.4375 416.921875 C 1239.121094 417.335938 1241.601562 418.65625 1243.425781 420.554688 C 1245.238281 422.445312 1246.402344 425.066406 1246.089844 427.621094 " fill-opacity="1" fill-rule="nonzero"/><path fill="#1f2229" d="M 1308.304688 450.746094 C 1310.230469 449.363281 1312.472656 448.378906 1314.828125 447.800781 C 1317.195312 447.277344 1319.671875 447.140625 1322.125 447.460938 C 1324.566406 447.796875 1326.992188 448.5625 1329.183594 449.820312 C 1331.371094 451.085938 1333.351562 452.769531 1334.898438 454.796875 C 1338.007812 458.835938 1339.671875 464.035156 1339.300781 469.289062 L 1339.21875 470.273438 L 1339.0625 471.253906 C 1338.96875 471.910156 1338.8125 472.542969 1338.648438 473.15625 C 1338.316406 474.382812 1337.929688 475.542969 1337.574219 476.652344 C 1336.867188 478.863281 1336.304688 480.9375 1336.476562 482.742188 C 1336.683594 486.417969 1339.882812 489.214844 1343.683594 491.683594 C 1345.578125 492.933594 1347.628906 494.117188 1349.683594 495.492188 C 1351.734375 496.859375 1353.84375 498.410156 1355.703125 500.515625 C 1356.621094 501.578125 1357.460938 502.796875 1358.082031 504.167969 C 1358.699219 505.535156 1359.121094 507.023438 1359.246094 508.539062 C 1359.507812 511.589844 1358.738281 514.378906 1357.855469 516.78125 C 1356.957031 519.195312 1355.871094 521.34375 1355.027344 523.40625 C 1354.179688 525.453125 1353.550781 527.425781 1353.570312 529.097656 C 1353.574219 529.9375 1353.695312 530.707031 1353.992188 531.441406 C 1354.085938 531.617188 1354.171875 531.796875 1354.257812 531.972656 L 1354.378906 532.246094 L 1354.558594 532.503906 L 1354.902344 533.027344 L 1355.34375 533.535156 C 1356.523438 534.910156 1358.347656 536.148438 1360.292969 537.460938 C 1362.230469 538.800781 1364.410156 540.175781 1366.375 542.382812 C 1366.878906 542.898438 1367.3125 543.550781 1367.742188 544.1875 C 1367.96875 544.492188 1368.121094 544.882812 1368.304688 545.230469 C 1368.464844 545.59375 1368.683594 545.929688 1368.785156 546.328125 C 1369.332031 547.84375 1369.558594 549.46875 1369.402344 551.078125 C 1369.257812 552.679688 1368.746094 554.152344 1368.132812 555.4375 C 1367.503906 556.730469 1366.761719 557.859375 1365.996094 558.898438 C 1364.464844 560.972656 1362.828125 562.726562 1361.414062 564.476562 C 1359.992188 566.21875 1358.78125 567.964844 1358.214844 569.679688 C 1357.925781 570.535156 1357.800781 571.367188 1357.847656 572.214844 C 1357.960938 573.050781 1358.109375 573.890625 1358.558594 574.710938 C 1359.355469 576.371094 1360.863281 577.960938 1362.542969 579.53125 C 1364.214844 581.117188 1366.089844 582.707031 1367.75 584.714844 C 1368.558594 585.753906 1369.359375 586.835938 1369.921875 588.121094 C 1370.058594 588.441406 1370.214844 588.75 1370.335938 589.082031 L 1370.632812 590.097656 L 1370.777344 590.605469 C 1370.8125 590.777344 1370.832031 590.953125 1370.859375 591.128906 C 1370.902344 591.480469 1370.980469 591.824219 1370.984375 592.175781 C 1371.097656 593.582031 1370.878906 594.976562 1370.507812 596.265625 C 1370.140625 597.566406 1369.582031 598.761719 1368.933594 599.855469 C 1367.632812 602.054688 1366.023438 603.914062 1364.40625 605.6875 C 1362.757812 607.480469 1361.113281 609.0625 1359.765625 610.929688 C 1359.074219 611.851562 1358.449219 612.820312 1357.914062 613.832031 C 1357.367188 614.839844 1356.929688 615.90625 1356.628906 617.007812 C 1356.328125 618.109375 1356.148438 619.261719 1356.269531 620.410156 C 1356.371094 621.554688 1356.726562 622.6875 1357.308594 623.726562 C 1356.582031 622.785156 1356.050781 621.675781 1355.796875 620.480469 C 1355.519531 619.285156 1355.554688 618.035156 1355.730469 616.820312 C 1355.910156 615.601562 1356.269531 614.417969 1356.734375 613.285156 C 1357.183594 612.148438 1357.734375 611.050781 1358.359375 610.003906 C 1358.976562 608.945312 1359.65625 607.929688 1360.410156 606.964844 L 1362.601562 604.167969 C 1364.023438 602.316406 1365.363281 600.425781 1366.300781 598.445312 C 1367.273438 596.480469 1367.773438 594.414062 1367.515625 592.507812 C 1367.226562 590.59375 1366.214844 588.894531 1364.757812 587.34375 C 1363.269531 585.800781 1361.464844 584.375 1359.613281 582.800781 C 1358.695312 582.019531 1357.757812 581.164062 1356.839844 580.238281 C 1355.960938 579.257812 1355.054688 578.230469 1354.367188 576.929688 C 1353.980469 576.320312 1353.722656 575.613281 1353.464844 574.910156 C 1353.3125 574.566406 1353.253906 574.1875 1353.167969 573.816406 C 1353.097656 573.441406 1353.007812 573.070312 1352.949219 572.695312 C 1352.769531 571.179688 1352.933594 569.621094 1353.332031 568.210938 C 1354.15625 565.367188 1355.714844 563.15625 1357.191406 561.171875 C 1358.6875 559.195312 1360.21875 557.40625 1361.460938 555.636719 C 1362.699219 553.875 1363.570312 552.109375 1363.660156 550.585938 C 1363.714844 549.828125 1363.566406 549.0625 1363.308594 548.355469 C 1363.273438 548.167969 1363.132812 548.011719 1363.0625 547.835938 C 1362.960938 547.664062 1362.917969 547.480469 1362.777344 547.316406 C 1362.527344 546.984375 1362.320312 546.636719 1361.980469 546.3125 C 1360.777344 544.96875 1358.929688 543.753906 1356.949219 542.453125 C 1354.984375 541.125 1352.785156 539.746094 1350.820312 537.550781 C 1350.582031 537.273438 1350.335938 537.003906 1350.105469 536.714844 L 1349.457031 535.761719 L 1349.136719 535.285156 L 1348.871094 534.757812 L 1348.363281 533.6875 C 1347.765625 532.230469 1347.492188 530.617188 1347.496094 529.089844 C 1347.519531 525.992188 1348.503906 523.386719 1349.453125 521.082031 C 1350.425781 518.769531 1351.472656 516.671875 1352.25 514.652344 C 1353.035156 512.644531 1353.507812 510.726562 1353.382812 509.027344 C 1353.253906 507.320312 1352.542969 505.742188 1351.324219 504.246094 C 1350.078125 502.757812 1348.394531 501.394531 1346.535156 500.097656 C 1344.6875 498.796875 1342.683594 497.523438 1340.667969 496.101562 C 1338.667969 494.664062 1336.59375 493.101562 1334.84375 490.9375 C 1333.972656 489.859375 1333.199219 488.628906 1332.648438 487.265625 C 1332.085938 485.898438 1331.8125 484.429688 1331.757812 482.972656 C 1331.707031 481.503906 1331.9375 480.101562 1332.265625 478.820312 C 1332.597656 477.535156 1333.023438 476.347656 1333.445312 475.21875 C 1333.867188 474.089844 1334.285156 473.019531 1334.621094 471.972656 C 1334.789062 471.449219 1334.949219 470.9375 1335.054688 470.429688 L 1335.238281 469.664062 L 1335.355469 468.882812 C 1335.96875 464.695312 1334.890625 460.179688 1332.488281 456.527344 C 1331.316406 454.675781 1329.75 453.085938 1327.945312 451.8125 C 1326.128906 450.535156 1324.019531 449.675781 1321.824219 449.113281 C 1317.40625 448.058594 1312.519531 448.542969 1308.304688 450.746094 " fill-opacity="1" fill-rule="nonzero"/><path fill="#2a2e37" d="M 1385.765625 473.019531 C 1373.621094 472.757812 1362.292969 460.546875 1352.082031 436.714844 C 1347.996094 427.164062 1332.988281 406.15625 1312.714844 402.148438 C 1292.253906 398.117188 1277.835938 416.609375 1277.695312 416.796875 L 1276.085938 415.5625 C 1276.238281 415.367188 1291.425781 395.886719 1313.105469 400.160156 C 1334.175781 404.316406 1349.714844 426.042969 1353.945312 435.914062 C 1366.238281 464.605469 1378.054688 470.824219 1385.808594 470.988281 L 1385.765625 473.019531 " fill-opacity="1" fill-rule="nonzero"/><path fill="#f8d09e" d="M 1367.101562 648.152344 C 1367.101562 648.152344 1421.957031 651.160156 1430.78125 700.585938 C 1439.605469 750.011719 1453.117188 891.539062 1453.117188 891.539062 C 1453.117188 891.539062 1395.171875 869.0625 1374.460938 901.90625 C 1364.550781 882.914062 1316.074219 712.601562 1321.773438 688.714844 C 1327.476562 664.828125 1344.589844 649.5 1367.101562 648.152344 " fill-opacity="1" fill-rule="nonzero"/><path fill="#f7a07a" d="M 1417.503906 942.488281 C 1435.34375 941.730469 1449.1875 926.648438 1448.429688 908.796875 L 1426.8125 708.652344 L 1396.40625 706.609375 L 1384.90625 918.441406 C 1388.695312 932.824219 1402.054688 943.144531 1417.503906 942.488281 " fill-opacity="1" fill-rule="nonzero"/><path fill="#f7a07a" d="M 1395.074219 682.175781 C 1395.074219 682.175781 1387.800781 722.996094 1410.183594 723.558594 C 1432.570312 724.121094 1445.910156 649.242188 1439.625 645.058594 C 1433.34375 640.875 1410.105469 661.210938 1405.292969 669.667969 C 1400.484375 678.121094 1395.074219 682.175781 1395.074219 682.175781 " fill-opacity="1" fill-rule="nonzero"/><path fill="#f7a07a" d="M 1409.183594 669.753906 C 1408.804688 684.683594 1407.425781 696 1402.199219 695.867188 C 1396.980469 695.738281 1393.777344 685.066406 1394.160156 670.132812 C 1394.53125 655.203125 1391.714844 643.023438 1396.9375 643.152344 C 1402.160156 643.285156 1409.558594 654.820312 1409.183594 669.753906 " fill-opacity="1" fill-rule="nonzero"/><path fill="#f7a07a" d="M 1424.730469 670.292969 C 1421.015625 672.140625 1415.53125 658.144531 1406.753906 640.457031 C 1397.972656 622.773438 1396.546875 615.71875 1400.261719 613.871094 C 1403.96875 612.027344 1406.320312 612.582031 1415.101562 630.265625 C 1423.882812 647.949219 1428.441406 668.449219 1424.730469 670.292969 " fill-opacity="1" fill-rule="nonzero"/><path fill="#f7a07a" d="M 1430.550781 668.246094 C 1426.632812 669.609375 1422.550781 653.902344 1415.535156 633.757812 C 1408.519531 613.613281 1407.804688 605.90625 1411.71875 604.542969 C 1415.632812 603.175781 1417.933594 604.136719 1424.949219 624.28125 C 1431.96875 644.425781 1434.464844 666.878906 1430.550781 668.246094 " fill-opacity="1" fill-rule="nonzero"/><path fill="#f7a07a" d="M 1437.664062 666.828125 C 1433.597656 667.640625 1431.707031 651.519531 1427.523438 630.601562 C 1423.335938 609.683594 1423.691406 601.957031 1427.753906 601.140625 C 1431.816406 600.324219 1433.96875 601.597656 1438.152344 622.511719 C 1442.335938 643.429688 1441.726562 666.011719 1437.664062 666.828125 " fill-opacity="1" fill-rule="nonzero"/><path fill="#f7a07a" d="M 1409.601562 643.742188 C 1409.601562 643.742188 1417.652344 652.445312 1408.867188 668.65625 C 1418.246094 680.476562 1436.289062 665.175781 1436.289062 665.175781 L 1409.601562 643.742188 " fill-opacity="1" fill-rule="nonzero"/><path fill="#f7a07a" d="M 1099.667969 930.96875 C 1107.109375 914.726562 1099.992188 895.523438 1083.765625 888.078125 L 922.46875 828.863281 L 895.953125 851.777344 L 1055.695312 944.585938 C 1067.828125 951.632812 1083.484375 950.179688 1093.332031 940.179688 C 1095.894531 937.574219 1098.058594 934.484375 1099.667969 930.96875 " fill-opacity="1" fill-rule="nonzero"/><path fill="#f7a07a" d="M 865.441406 803.574219 C 869.398438 794.398438 898.019531 803.796875 921.738281 827.535156 C 930.882812 836.6875 905.238281 856.550781 905.238281 856.550781 C 905.238281 856.550781 844.644531 840.308594 847.570312 827.4375 C 850.496094 814.566406 865.441406 803.574219 865.441406 803.574219 " fill-opacity="1" fill-rule="nonzero"/><path fill="#f7a07a" d="M 888.1875 806.125 C 885.773438 810.21875 870.824219 814.597656 858.242188 807.15625 C 845.660156 799.714844 836.238281 786.578125 838.65625 782.484375 C 841.074219 778.394531 849.28125 785.066406 861.867188 792.507812 C 874.445312 799.953125 890.605469 802.035156 888.1875 806.125 " fill-opacity="1" fill-rule="nonzero"/><path fill="#f7a07a" d="M 880.242188 832.074219 C 876.089844 839.105469 864.050781 844.683594 844.425781 833.078125 C 824.804688 821.472656 794.109375 777.199219 798.257812 770.171875 C 802.40625 763.148438 818.96875 790.964844 838.589844 802.574219 C 858.214844 814.175781 884.390625 825.050781 880.242188 832.074219 " fill-opacity="1" fill-rule="nonzero"/><path fill="#e0bc8f" d="M 1370.085938 754.558594 C 1370.085938 754.558594 1377.265625 854.027344 1317.621094 853.699219 C 1257.976562 853.375 1206.683594 852.773438 1187.296875 850.972656 C 1187.296875 850.972656 1334.832031 870.46875 1374.460938 929.230469 C 1370.214844 900.179688 1370.085938 754.558594 1370.085938 754.558594 " fill-opacity="1" fill-rule="nonzero"/><path fill="#828a8c" d="M 1335.433594 511.832031 L 1330.652344 511.996094 L 1330.367188 511.996094 L 1329.414062 512.035156 L 1325.300781 512.175781 C 1325.160156 507.878906 1324.652344 503.515625 1323.78125 499.175781 C 1322.261719 491.40625 1319.644531 483.699219 1316.039062 476.519531 C 1315.066406 474.53125 1313.992188 472.585938 1312.859375 470.679688 C 1310.347656 466.480469 1307.410156 462.605469 1304.082031 459.097656 C 1292.777344 447.109375 1277.09375 439.222656 1259.21875 436.398438 C 1256.523438 435.976562 1253.789062 435.671875 1250.992188 435.488281 C 1247.140625 435.207031 1243.230469 435.164062 1239.257812 435.371094 C 1238.226562 435.429688 1237.210938 435.488281 1236.175781 435.570312 C 1235.203125 435.652344 1234.253906 435.734375 1233.28125 435.835938 C 1230.648438 436.117188 1227.707031 436.5625 1224.507812 437.292969 C 1215.367188 439.304688 1204.203125 443.417969 1192.488281 451.550781 C 1196.925781 443.519531 1202.882812 436.644531 1209.9375 431.046875 L 1209.957031 431.027344 C 1218.445312 427.886719 1226.109375 426.402344 1232.207031 425.753906 C 1239.824219 424.941406 1247.285156 424.898438 1254.476562 425.59375 C 1260.394531 426.140625 1266.128906 427.191406 1271.640625 428.714844 C 1284.183594 432.160156 1295.511719 438.003906 1304.914062 445.933594 C 1306.699219 447.433594 1308.402344 448.996094 1310.019531 450.640625 C 1311.726562 452.34375 1313.324219 454.128906 1314.863281 455.976562 C 1317.316406 458.957031 1319.546875 462.121094 1321.550781 465.46875 C 1322.382812 466.867188 1323.175781 468.265625 1323.921875 469.703125 C 1324.347656 470.476562 1324.753906 471.265625 1325.140625 472.058594 C 1326.738281 475.242188 1328.15625 478.527344 1329.375 481.855469 C 1332.234375 489.480469 1334.117188 497.453125 1334.96875 505.339844 C 1335.191406 507.511719 1335.351562 509.679688 1335.433594 511.832031 " fill-opacity="1" fill-rule="nonzero"/><path fill="#828a8c" d="M 1328.449219 558.691406 C 1316.324219 558.691406 1308.175781 546.777344 1308.175781 529.046875 C 1308.175781 511.257812 1316.511719 498.832031 1328.449219 498.832031 C 1340.933594 498.832031 1351.089844 512.257812 1351.089844 528.761719 C 1351.089844 545.265625 1340.933594 558.691406 1328.449219 558.691406 " fill-opacity="1" fill-rule="nonzero"/><path fill="#c9d6d9" d="M 1348.0625 528.761719 C 1348.0625 542.238281 1340.191406 553.167969 1330.476562 553.167969 C 1320.761719 553.167969 1315.253906 542.527344 1315.253906 529.046875 C 1315.253906 515.566406 1320.761719 504.355469 1330.476562 504.355469 C 1340.191406 504.355469 1348.0625 515.28125 1348.0625 528.761719 " fill-opacity="1" fill-rule="nonzero"/><path fill="#636a6b" d="M 1251.558594 592.175781 C 1251.550781 586.5625 1257.046875 582.78125 1265.242188 582.769531 C 1273.460938 582.753906 1279.210938 586.601562 1279.222656 592.125 C 1279.230469 597.90625 1273.035156 602.621094 1265.410156 602.632812 C 1257.78125 602.648438 1251.570312 597.957031 1251.558594 592.175781 " fill-opacity="1" fill-rule="nonzero"/><path fill="#636a6b" d="M 1265.40625 600.296875 C 1259.175781 600.304688 1254.121094 596.667969 1254.109375 592.171875 C 1254.101562 587.675781 1259.015625 585.117188 1265.246094 585.105469 C 1271.472656 585.09375 1276.660156 587.632812 1276.667969 592.132812 C 1276.675781 596.628906 1271.632812 600.285156 1265.40625 600.296875 " fill-opacity="1" fill-rule="nonzero"/><path fill="#828a8c" d="M 1271.742188 594.722656 L 1271.398438 590.679688 C 1304.945312 587.816406 1320.917969 552.789062 1321.074219 552.4375 L 1324.777344 554.085938 C 1324.609375 554.46875 1320.507812 563.59375 1311.957031 573.203125 C 1300.558594 586.007812 1286.65625 593.449219 1271.742188 594.722656 " fill-opacity="1" fill-rule="nonzero"/><path fill="#1f2229" d="M 1269.707031 440.386719 C 1270.757812 439.402344 1272.007812 438.605469 1273.375 438.058594 C 1274.753906 437.539062 1276.230469 437.246094 1277.730469 437.222656 C 1279.226562 437.210938 1280.75 437.464844 1282.171875 438.035156 C 1283.59375 438.605469 1284.929688 439.445312 1286.035156 440.53125 C 1288.25 442.691406 1289.695312 445.671875 1289.921875 448.859375 C 1289.957031 449.257812 1289.964844 449.660156 1289.949219 450.058594 C 1289.949219 450.464844 1289.910156 450.859375 1289.863281 451.242188 C 1289.769531 452.007812 1289.636719 452.734375 1289.519531 453.433594 C 1289.285156 454.824219 1289.125 456.117188 1289.378906 457.1875 C 1289.820312 459.375 1291.980469 460.785156 1294.46875 461.949219 C 1295.714844 462.539062 1297.042969 463.082031 1298.402344 463.726562 C 1299.75 464.367188 1301.148438 465.113281 1302.449219 466.214844 C 1303.742188 467.304688 1304.875 468.917969 1305.25 470.730469 C 1305.675781 472.535156 1305.457031 474.28125 1305.128906 475.796875 C 1304.792969 477.320312 1304.335938 478.707031 1304.007812 480.019531 C 1303.675781 481.324219 1303.488281 482.558594 1303.636719 483.566406 C 1303.644531 483.832031 1303.757812 484.042969 1303.796875 484.289062 C 1303.878906 484.511719 1303.992188 484.722656 1304.082031 484.945312 C 1304.347656 485.34375 1304.617188 485.746094 1305.066406 486.09375 C 1305.890625 486.820312 1307.09375 487.414062 1308.375 488.035156 C 1309.652344 488.671875 1311.085938 489.304688 1312.457031 490.457031 C 1313.140625 491.007812 1313.773438 491.761719 1314.246094 492.613281 C 1314.453125 493.058594 1314.683594 493.492188 1314.773438 493.976562 L 1314.945312 494.6875 C 1314.996094 494.925781 1314.988281 495.171875 1315.003906 495.414062 C 1315.011719 495.652344 1315.027344 495.898438 1315.019531 496.136719 L 1314.929688 496.828125 C 1314.882812 497.304688 1314.746094 497.714844 1314.621094 498.136719 C 1314.359375 498.972656 1314.003906 499.707031 1313.636719 500.402344 C 1312.894531 501.777344 1312.066406 502.972656 1311.371094 504.148438 C 1310.675781 505.320312 1310.101562 506.476562 1309.910156 507.554688 C 1309.691406 508.625 1309.902344 509.636719 1310.539062 510.550781 C 1311.160156 511.480469 1312.207031 512.304688 1313.351562 513.105469 C 1314.492188 513.914062 1315.753906 514.707031 1316.925781 515.769531 C 1318.085938 516.824219 1319.152344 518.289062 1319.507812 519.976562 C 1319.855469 521.667969 1319.523438 523.355469 1318.929688 524.765625 C 1318.339844 526.199219 1317.53125 527.457031 1316.710938 528.660156 C 1315.878906 529.875 1315.023438 530.972656 1314.375 532.210938 C 1313.710938 533.433594 1313.179688 534.75 1313.011719 536.128906 C 1312.792969 537.5 1313.085938 538.96875 1313.996094 540.109375 C 1312.949219 539.105469 1312.410156 537.585938 1312.453125 536.09375 C 1312.472656 534.597656 1312.890625 533.136719 1313.449219 531.769531 C 1313.984375 530.382812 1314.816406 529.125 1315.496094 527.902344 C 1316.191406 526.667969 1316.832031 525.417969 1317.230469 524.144531 C 1317.644531 522.882812 1317.769531 521.597656 1317.445312 520.476562 C 1317.109375 519.347656 1316.359375 518.414062 1315.351562 517.609375 C 1314.324219 516.8125 1313.117188 516.109375 1311.871094 515.324219 C 1310.636719 514.535156 1309.292969 513.65625 1308.210938 512.25 C 1307.65625 511.566406 1307.265625 510.707031 1307 509.824219 C 1306.921875 509.371094 1306.820312 508.914062 1306.789062 508.457031 C 1306.800781 508.007812 1306.773438 507.53125 1306.847656 507.097656 C 1307.101562 505.320312 1307.847656 503.859375 1308.566406 502.542969 C 1309.296875 501.222656 1310.066406 500.019531 1310.652344 498.847656 C 1311.242188 497.679688 1311.605469 496.546875 1311.515625 495.621094 C 1311.417969 494.679688 1311.035156 493.867188 1310.164062 493.183594 C 1309.328125 492.476562 1308.109375 491.902344 1306.8125 491.289062 C 1305.519531 490.660156 1304.078125 490.023438 1302.707031 488.878906 C 1302.015625 488.339844 1301.402344 487.585938 1300.894531 486.773438 C 1300.683594 486.347656 1300.46875 485.914062 1300.308594 485.464844 C 1300.195312 485.007812 1300.015625 484.542969 1299.988281 484.085938 C 1299.746094 482.230469 1300.105469 480.578125 1300.480469 479.109375 C 1300.867188 477.636719 1301.320312 476.289062 1301.617188 475.007812 C 1301.910156 473.730469 1302.015625 472.539062 1301.785156 471.53125 C 1301.585938 470.5 1300.996094 469.632812 1300.144531 468.828125 C 1299.273438 468.039062 1298.140625 467.359375 1296.917969 466.738281 C 1295.695312 466.109375 1294.378906 465.523438 1293.046875 464.847656 C 1291.722656 464.15625 1290.335938 463.402344 1289.097656 462.25 C 1288.484375 461.675781 1287.914062 461.003906 1287.464844 460.230469 C 1287.011719 459.460938 1286.722656 458.601562 1286.5625 457.730469 C 1286.261719 455.953125 1286.613281 454.34375 1286.914062 452.925781 C 1287.238281 451.492188 1287.523438 450.226562 1287.519531 448.953125 C 1287.523438 446.386719 1286.492188 443.769531 1284.734375 441.78125 C 1283.871094 440.769531 1282.792969 439.949219 1281.597656 439.335938 C 1280.398438 438.730469 1279.058594 438.394531 1277.691406 438.242188 C 1274.949219 437.992188 1272.042969 438.691406 1269.707031 440.386719 " fill-opacity="1" fill-rule="nonzero"/><path fill="#1f2229" d="M 1227.246094 422.203125 C 1224.914062 420.5 1222.011719 419.792969 1219.273438 420.035156 C 1217.902344 420.179688 1216.558594 420.511719 1215.359375 421.117188 C 1214.160156 421.726562 1213.082031 422.542969 1212.214844 423.554688 C 1210.453125 425.539062 1209.414062 428.152344 1209.410156 430.71875 C 1209.402344 431.988281 1209.6875 433.253906 1210.007812 434.691406 C 1210.300781 436.113281 1210.648438 437.722656 1210.34375 439.5 C 1210.179688 440.367188 1209.890625 441.226562 1209.433594 442 C 1208.984375 442.765625 1208.410156 443.441406 1207.796875 444.007812 C 1206.554688 445.15625 1205.167969 445.910156 1203.839844 446.59375 C 1202.507812 447.273438 1201.1875 447.851562 1199.964844 448.472656 C 1198.738281 449.09375 1197.605469 449.769531 1196.730469 450.558594 C 1195.878906 451.359375 1195.285156 452.226562 1195.085938 453.253906 C 1194.847656 454.261719 1194.953125 455.457031 1195.242188 456.734375 C 1195.535156 458.015625 1195.984375 459.367188 1196.367188 460.839844 C 1196.734375 462.308594 1197.089844 463.960938 1196.847656 465.816406 C 1196.816406 466.273438 1196.636719 466.738281 1196.523438 467.195312 C 1196.359375 467.640625 1196.144531 468.074219 1195.929688 468.5 C 1195.421875 469.308594 1194.804688 470.0625 1194.109375 470.601562 C 1192.742188 471.742188 1191.296875 472.375 1190 473 C 1188.699219 473.609375 1187.484375 474.179688 1186.644531 474.886719 C 1185.773438 475.566406 1185.386719 476.378906 1185.285156 477.316406 C 1185.195312 478.242188 1185.550781 479.378906 1186.136719 480.546875 C 1186.722656 481.722656 1187.488281 482.925781 1188.214844 484.25 C 1188.929688 485.566406 1189.671875 487.03125 1189.921875 488.808594 C 1189.996094 489.242188 1189.964844 489.714844 1189.976562 490.167969 C 1189.945312 490.621094 1189.839844 491.082031 1189.761719 491.535156 C 1189.492188 492.414062 1189.097656 493.273438 1188.539062 493.953125 C 1187.457031 495.359375 1186.109375 496.234375 1184.871094 497.015625 C 1183.625 497.800781 1182.417969 498.5 1181.390625 499.296875 C 1180.378906 500.101562 1179.625 501.027344 1179.285156 502.15625 C 1178.960938 503.28125 1179.078125 504.5625 1179.492188 505.824219 C 1179.882812 507.101562 1180.523438 508.355469 1181.214844 509.585938 C 1181.890625 510.8125 1182.71875 512.074219 1183.25 513.464844 C 1183.804688 514.832031 1184.222656 516.292969 1184.234375 517.789062 C 1184.273438 519.277344 1183.730469 520.800781 1182.679688 521.796875 C 1183.589844 520.660156 1183.890625 519.195312 1183.675781 517.824219 C 1183.511719 516.445312 1182.984375 515.125 1182.324219 513.898438 C 1181.679688 512.65625 1180.828125 511.5625 1179.996094 510.34375 C 1179.179688 509.136719 1178.378906 507.878906 1177.789062 506.445312 C 1177.199219 505.03125 1176.875 503.339844 1177.226562 501.652344 C 1177.585938 499.964844 1178.65625 498.503906 1179.820312 497.453125 C 1180.992188 496.394531 1182.257812 495.601562 1183.402344 494.796875 C 1184.550781 494 1185.597656 493.179688 1186.21875 492.253906 C 1186.859375 491.339844 1187.074219 490.332031 1186.859375 489.257812 C 1186.667969 488.179688 1186.097656 487.019531 1185.40625 485.847656 C 1184.710938 484.667969 1183.890625 483.46875 1183.152344 482.089844 C 1182.785156 481.398438 1182.429688 480.660156 1182.171875 479.824219 C 1182.050781 479.402344 1181.914062 478.992188 1181.871094 478.519531 L 1181.78125 477.824219 C 1181.773438 477.585938 1181.789062 477.34375 1181.796875 477.101562 C 1181.816406 476.859375 1181.808594 476.613281 1181.855469 476.375 L 1182.03125 475.664062 C 1182.125 475.179688 1182.355469 474.746094 1182.566406 474.304688 C 1183.035156 473.457031 1183.671875 472.703125 1184.359375 472.152344 C 1185.730469 471.003906 1187.167969 470.375 1188.445312 469.742188 C 1189.730469 469.121094 1190.933594 468.535156 1191.757812 467.808594 C 1192.210938 467.464844 1192.484375 467.0625 1192.75 466.664062 C 1192.84375 466.441406 1192.953125 466.234375 1193.035156 466.007812 C 1193.074219 465.761719 1193.1875 465.554688 1193.195312 465.285156 C 1193.351562 464.28125 1193.160156 463.042969 1192.832031 461.738281 C 1192.511719 460.425781 1192.058594 459.035156 1191.726562 457.511719 C 1191.402344 455.992188 1191.191406 454.246094 1191.617188 452.445312 C 1192 450.636719 1193.136719 449.023438 1194.433594 447.9375 C 1195.734375 446.84375 1197.136719 446.101562 1198.488281 445.460938 C 1199.84375 444.820312 1201.175781 444.277344 1202.425781 443.695312 C 1204.917969 442.535156 1207.082031 441.136719 1207.527344 438.945312 C 1207.789062 437.878906 1207.628906 436.582031 1207.398438 435.191406 C 1207.285156 434.5 1207.152344 433.765625 1207.0625 432.996094 C 1207.015625 432.617188 1206.980469 432.21875 1206.980469 431.820312 C 1206.960938 431.421875 1206.972656 431.019531 1207.007812 430.617188 C 1207.242188 427.429688 1208.699219 424.457031 1210.917969 422.296875 C 1212.027344 421.222656 1213.363281 420.378906 1214.789062 419.816406 C 1216.214844 419.253906 1217.738281 419.003906 1219.234375 419.019531 C 1220.734375 419.039062 1222.210938 419.339844 1223.585938 419.867188 C 1224.949219 420.414062 1226.199219 421.214844 1227.246094 422.203125 " fill-opacity="1" fill-rule="nonzero"/><g clip-path="url(#356f42841b)"><path fill="#666666" d="M 1326.773438 990.878906 L 1064.929688 990.878906 L 1062.21875 983.964844 L 1061.460938 982.019531 L 1044.15625 937.871094 L 1023.210938 884.453125 C 1020.6875 878.011719 1023.363281 871.195312 1028.632812 867.835938 C 1030.722656 866.503906 1033.226562 865.714844 1035.976562 865.714844 L 1268.359375 865.714844 C 1273.246094 865.714844 1277.699219 868.3125 1280.144531 872.429688 C 1280.523438 873.058594 1280.851562 873.730469 1281.125 874.429688 L 1323.292969 982.019531 L 1324.054688 983.964844 L 1326.773438 990.878906 " fill-opacity="1" fill-rule="nonzero"/></g><g clip-path="url(#6d7cb4901b)"><path fill="#4d4d4d" d="M 1319.683594 990.878906 L 1057.839844 990.878906 L 1055.128906 983.964844 L 1054.371094 982.019531 L 1034.972656 932.542969 L 1016.121094 884.453125 C 1013.140625 876.839844 1017.417969 868.707031 1024.652344 866.375 C 1025.980469 865.941406 1027.398438 865.714844 1028.894531 865.714844 L 1261.269531 865.714844 C 1264.832031 865.714844 1268.164062 867.097656 1270.660156 869.453125 C 1272.109375 870.800781 1273.277344 872.496094 1274.035156 874.429688 L 1316.203125 982.019531 L 1316.964844 983.964844 L 1319.683594 990.878906 " fill-opacity="1" fill-rule="nonzero"/></g><g clip-path="url(#0df046c0cf)"><path fill="#333333" d="M 1183.046875 944.46875 L 1178.671875 982.019531 L 1178.441406 983.964844 L 1177.640625 990.878906 L 1092.714844 990.878906 L 1096.246094 983.964844 L 1097.242188 982.019531 L 1116.445312 944.46875 L 1183.046875 944.46875 " fill-opacity="1" fill-rule="nonzero"/></g></svg>